<svg width="36" height="36" viewBox="0 0 36 36" fill="none" xmlns="http://www.w3.org/2000/svg">
<path d="M17.9999 21.32C18.3446 21.32 18.6753 21.183 18.9191 20.9392C19.1629 20.6954 19.2999 20.3647 19.2999 20.02V14C19.2999 13.6552 19.1629 13.3245 18.9191 13.0807C18.6753 12.8369 18.3446 12.7 17.9999 12.7C17.6551 12.7 17.3244 12.8369 17.0806 13.0807C16.8368 13.3245 16.6999 13.6552 16.6999 14V20C16.6972 20.1723 16.7289 20.3435 16.793 20.5036C16.8572 20.6636 16.9525 20.8093 17.0735 20.9321C17.1945 21.055 17.3387 21.1525 17.4977 21.2191C17.6567 21.2857 17.8274 21.32 17.9999 21.32Z" fill="black"/>
<path d="M17.9502 25.77C18.7786 25.77 19.4502 25.0984 19.4502 24.27C19.4502 23.4416 18.7786 22.77 17.9502 22.77C17.1218 22.77 16.4502 23.4416 16.4502 24.27C16.4502 25.0984 17.1218 25.77 17.9502 25.77Z" fill="black"/>
<path d="M30.3302 25.54L20.5902 7.60003C20.3323 7.12625 19.9515 6.73075 19.4878 6.45518C19.024 6.17962 18.4946 6.03418 17.9552 6.03418C17.4158 6.03418 16.8863 6.17962 16.4226 6.45518C15.9589 6.73075 15.5781 7.12625 15.3202 7.60003L5.57019 25.54C5.31499 25.9981 5.18431 26.515 5.19117 27.0393C5.19804 27.5637 5.3422 28.077 5.60929 28.5282C5.87639 28.9795 6.25708 29.3528 6.71343 29.611C7.16978 29.8693 7.68585 30.0034 8.21019 30H27.6902C28.2102 30.0005 28.7215 29.8658 29.1737 29.6091C29.626 29.3524 30.0038 28.9825 30.27 28.5358C30.5362 28.0891 30.6818 27.5808 30.6923 27.0609C30.7029 26.5409 30.5781 26.0272 30.3302 25.57V25.54ZM28.5502 27.48C28.4617 27.6293 28.3358 27.753 28.1851 27.8389C28.0343 27.9248 27.8637 27.97 27.6902 27.97H8.21019C8.03637 27.9705 7.86542 27.9257 7.71421 27.8399C7.563 27.7542 7.43676 27.6305 7.34792 27.4811C7.25908 27.3317 7.21072 27.1617 7.20762 26.9879C7.20451 26.8141 7.24675 26.6425 7.33019 26.49L17.0702 8.55003C17.1559 8.39128 17.2829 8.25867 17.4378 8.16624C17.5927 8.07381 17.7698 8.02501 17.9502 8.02501C18.1306 8.02501 18.3076 8.07381 18.4625 8.16624C18.6175 8.25867 18.7445 8.39128 18.8302 8.55003L28.5702 26.49C28.6531 26.6426 28.6948 26.8141 28.6913 26.9877C28.6878 27.1613 28.6392 27.331 28.5502 27.48Z" fill="black"/>
</svg>
