<svg width="17" height="18" viewBox="0 0 17 18" fill="none" xmlns="http://www.w3.org/2000/svg">
<path d="M17 10.0397C17 9.25562 16.9668 8.55107 16.9004 7.92607C16.7786 6.83516 16.4771 5.81527 15.9956 4.86641C15.5142 3.91755 14.9082 3.10505 14.1777 2.42891C13.4473 1.75277 12.5951 1.22152 11.6211 0.835161C10.6471 0.448797 9.62337 0.255615 8.5498 0.255615C7.05566 0.255615 5.67773 0.619252 4.41602 1.34652C3.1543 2.0738 2.13607 3.07664 1.36133 4.35505C0.586589 5.63346 0.160482 7.05107 0.0830078 8.60789C0.0608724 9.16471 0.0442708 9.59084 0.0332031 9.8863V10.142C0.0332031 10.1761 0.0304362 10.2102 0.0249023 10.2443L0.00830078 10.3465L0 10.4488V14.1136C0 14.5113 0.138346 14.8522 0.415039 15.1363C0.691732 15.4204 1.02376 15.5624 1.41113 15.5624H2.83887C3.2373 15.5624 3.5721 15.4204 3.84326 15.1363C4.11442 14.8522 4.25 14.5113 4.25 14.1136V10.4488C4.25 10.1874 4.18913 9.94596 4.06738 9.72437C3.94564 9.50277 3.77686 9.32664 3.56104 9.19596C3.34521 9.06527 3.10449 8.99993 2.83887 8.99993H1.41113C1.31152 8.99993 1.21745 9.0113 1.12891 9.03402V8.90618L1.13721 8.80391L1.14551 8.71868V8.67607C1.21191 7.30107 1.58268 6.05391 2.25781 4.93459C2.93294 3.81527 3.82389 2.93743 4.93066 2.30107C6.03744 1.66471 7.24381 1.34652 8.5498 1.34652C10.4535 1.34652 12.0915 1.98005 13.4639 3.24709C14.8363 4.51414 15.6276 6.11357 15.8379 8.04539C15.849 8.12493 15.86 8.25562 15.8711 8.43743C15.8822 8.61925 15.8932 8.81812 15.9043 9.03402C15.7936 9.0113 15.6885 8.99993 15.5889 8.99993H14.1777C13.7793 8.99993 13.4445 9.14198 13.1733 9.42607C12.9022 9.71016 12.7666 10.0511 12.7666 10.4488V14.0965C12.7666 14.3579 12.833 14.6022 12.9658 14.8295C13.0986 15.0568 13.2812 15.2329 13.5137 15.3579L10.0938 16.7386V16.6533C10.0938 16.5511 10.0716 16.4573 10.0273 16.3721C9.98307 16.2869 9.91943 16.2215 9.83643 16.1761C9.75342 16.1306 9.66211 16.1079 9.5625 16.1079H7.96875C7.82487 16.1079 7.70036 16.159 7.59521 16.2613C7.49007 16.3636 7.4375 16.4943 7.4375 16.6533V17.1988C7.4375 17.3465 7.49007 17.4744 7.59521 17.5823C7.70036 17.6903 7.82487 17.7443 7.96875 17.7443H9.5791L10.5254 17.7272L16.0039 15.5283L16.0703 15.4943L16.1284 15.4516L16.1865 15.392C16.43 15.2783 16.6265 15.105 16.7759 14.8721C16.9253 14.6391 17 14.3806 17 14.0965V10.4488C17 10.3693 16.9889 10.284 16.9668 10.1931C16.9889 10.1363 17 10.0852 17 10.0397ZM1.41113 10.0908H2.83887C2.89421 10.0908 2.94124 10.0994 2.97998 10.1164C3.01872 10.1335 3.05469 10.159 3.08789 10.1931C3.12109 10.2272 3.146 10.267 3.1626 10.3124C3.1792 10.3579 3.1875 10.4033 3.1875 10.4488V14.1136C3.1875 14.2045 3.1543 14.2869 3.08789 14.3607C3.02148 14.4346 2.93848 14.4715 2.83887 14.4715H1.41113C1.31152 14.4715 1.22852 14.4346 1.16211 14.3607C1.0957 14.2869 1.0625 14.2045 1.0625 14.1136V10.4488C1.0625 10.4033 1.0708 10.3579 1.0874 10.3124C1.104 10.267 1.12891 10.2272 1.16211 10.1931C1.19531 10.159 1.23405 10.1335 1.27832 10.1164C1.32259 10.0994 1.36686 10.0908 1.41113 10.0908ZM13.8291 10.4488C13.8291 10.4147 13.8346 10.3778 13.8457 10.338C13.8568 10.2982 13.8734 10.2641 13.8955 10.2357C13.9176 10.2073 13.9425 10.1818 13.9702 10.159C13.9979 10.1363 14.0283 10.1193 14.0615 10.1079C14.0947 10.0965 14.1335 10.0908 14.1777 10.0908H15.5889C15.6553 10.0908 15.7134 10.1079 15.7632 10.142C15.813 10.1761 15.8545 10.2187 15.8877 10.2698C15.9209 10.321 15.9375 10.3806 15.9375 10.4488V14.0965C15.9375 14.1533 15.9209 14.2102 15.8877 14.267C15.8545 14.3238 15.813 14.3693 15.7632 14.4033C15.7134 14.4374 15.6553 14.4545 15.5889 14.4545H14.1777C14.0781 14.4545 13.9951 14.4175 13.9287 14.3437C13.8623 14.2698 13.8291 14.1874 13.8291 14.0965V10.4488Z" fill="white"/>
</svg>
