<svg width="56" height="56" viewBox="0 0 56 56" fill="none" xmlns="http://www.w3.org/2000/svg">
<circle cx="28" cy="28" r="27" stroke="black" stroke-width="2"/>
<path d="M28.0029 41.5613C24.3129 41.5613 23.8779 41.5418 22.4379 41.4788C21.315 41.4419 20.2066 41.2136 19.1604 40.8038C17.3504 40.0994 15.9191 38.6676 15.2154 36.8573C14.8214 35.8074 14.6089 34.6981 14.5869 33.5768C14.5029 32.1398 14.5029 31.6688 14.5029 28.0073C14.5029 24.3068 14.5224 23.8748 14.5869 22.4423C14.6093 21.3226 14.8219 20.2148 15.2154 19.1663C15.9184 17.3536 17.352 15.9206 19.1649 15.2183C20.2129 14.8226 21.3209 14.6095 22.4409 14.5883C23.8734 14.5073 24.3444 14.5073 28.0029 14.5073C31.7229 14.5073 32.1504 14.5268 33.5679 14.5883C34.6908 14.6097 35.8018 14.8228 36.8529 15.2183C38.6654 15.9214 40.0987 17.3541 40.8024 19.1663C41.2031 20.2301 41.4168 21.3552 41.4339 22.4918C41.5179 23.9288 41.5179 24.3983 41.5179 28.0583C41.5179 31.7183 41.4969 32.1983 41.4339 33.6188C41.4116 34.7411 41.1986 35.8515 40.8039 36.9023C40.0984 38.7139 38.665 40.1462 36.8529 40.8503C35.8033 41.2436 34.6946 41.4561 33.5739 41.4788C32.1414 41.5613 31.6719 41.5613 28.0029 41.5613ZM27.9519 16.8818C24.2829 16.8818 23.9019 16.8998 22.4694 16.9643C21.6144 16.9757 20.7676 17.1334 19.9659 17.4308C18.7821 17.8838 17.8453 18.8168 17.3874 19.9988C17.0877 20.8093 16.9299 21.6653 16.9209 22.5293C16.8414 23.9828 16.8414 24.3638 16.8414 28.0073C16.8414 31.6073 16.8549 32.0438 16.9209 33.4883C16.9344 34.3436 17.0921 35.1905 17.3874 35.9933C17.8459 37.1746 18.7826 38.1068 19.9659 38.5598C20.7671 38.8592 21.6142 39.017 22.4694 39.0263C23.9214 39.1103 24.3039 39.1103 27.9519 39.1103C31.6314 39.1103 32.0124 39.0923 33.4329 39.0263C34.2885 39.0159 35.1359 38.8581 35.9379 38.5598C37.1146 38.1029 38.0453 37.1728 38.5029 35.9963C38.802 35.1852 38.9598 34.3288 38.9694 33.4643H38.9859C39.0504 32.0303 39.0504 31.6478 39.0504 27.9833C39.0504 24.3188 39.0339 23.9333 38.9694 22.5008C38.956 21.6465 38.7983 20.8006 38.5029 19.9988C38.0464 18.8207 37.1155 17.8888 35.9379 17.4308C35.1361 17.1319 34.2886 16.9741 33.4329 16.9643C31.9824 16.8818 31.6029 16.8818 27.9519 16.8818ZM28.0029 34.9358C25.1979 34.9376 22.6681 33.2494 21.5932 30.6585C20.5184 28.0676 21.1103 25.0843 23.0929 23.1C25.0755 21.1157 28.0582 20.5212 30.6501 21.5938C33.2419 22.6664 34.9323 25.1948 34.9329 27.9998C34.9288 31.8264 31.8295 34.9284 28.0029 34.9358ZM28.0029 23.4968C25.5176 23.4968 23.5029 25.5115 23.5029 27.9968C23.5029 30.4821 25.5176 32.4968 28.0029 32.4968C30.4882 32.4968 32.5029 30.4821 32.5029 27.9968C32.4972 25.5139 30.4858 23.5026 28.0029 23.4968ZM35.2029 22.4273C34.3111 22.424 33.5903 21.6992 33.5919 20.8073C33.5936 19.9155 34.3171 19.1933 35.2089 19.1933C36.1008 19.1933 36.8243 19.9155 36.8259 20.8073C36.8263 21.2376 36.6554 21.6504 36.3508 21.9543C36.0463 22.2583 35.6332 22.4285 35.2029 22.4273Z" fill="#192038"/>
</svg>
