<svg width="264" height="197" viewBox="0 0 264 197" fill="none" xmlns="http://www.w3.org/2000/svg">
<path d="M149.01 104.575C149.715 102.562 167.935 61.5703 167.935 61.5703C167.935 61.5703 165.268 61.6929 161.041 61.6155C157.087 61.5494 156.724 59.3887 156.289 57.6012C155.85 55.8211 151.579 33.966 151.579 33.966C151.579 33.966 137.554 44.9697 135.41 46.618C133.27 48.2735 132.093 47.7914 131.381 47.1853C130.677 46.5763 124.341 38.6068 124.341 38.6068C124.341 38.6068 118.714 60.7911 117.116 64.6937C115.535 68.5962 112.445 66.0926 111.771 63.3751C111.098 60.6568 100.688 24.0226 100.688 24.0226C100.688 24.0226 95.8833 30.4082 93.9334 33.1249C91.9811 35.8382 89.712 35.7702 87.2584 34.1489C84.8042 32.5268 65.8858 17.5364 65.8858 17.5364C65.8858 17.5364 65.6957 41.6615 65.4201 44.5882C65.1437 47.5149 63.7732 49.3228 60.4406 49.1356C57.0923 48.9516 49.1087 48.6795 49.1087 48.6795C49.1087 48.6795 71.1164 79.7694 72.812 81.9989C74.514 84.2248 74.5255 88.2008 70.4858 86.9848C66.4488 85.7759 45.6317 76.233 45.6317 76.233C45.6317 76.233 47.866 86.1632 47.8915 87.0967C47.9243 88.0274 47.5612 89.2455 44.9283 89.872C42.2985 90.5058 24.9236 94.5125 24.9236 94.5125C24.9236 94.5125 39.2668 111.552 40.3852 113.008C41.5055 114.468 42.9541 116.11 40.5315 119.224C37.9334 122.564 36.1634 124.563 36.1634 124.563C36.1634 124.563 79.5379 136.109 81.5563 136.82C83.5743 137.533 84.4064 138.605 84.6603 140.681C84.9233 142.757 82.4391 152.853 82.4391 152.853C82.4391 152.853 112.027 134.534 114.182 134.329C116.329 134.124 117.747 133.24 120.559 137.82C123.359 142.41 133.054 166.359 133.054 166.359L136.23 164.841L136.529 164.698L139.714 163.176C139.714 163.176 127.126 140.61 125.32 135.544C123.5 130.489 125.082 129.94 126.589 128.398C128.097 126.851 160.941 115.325 160.941 115.325C160.941 115.325 151.516 110.922 150.063 109.416C148.613 107.912 148.292 106.595 149.01 104.575Z" fill="#AB4451"/>
<path d="M180.897 112.884C182.048 111.088 209.25 75.425 209.25 75.425C209.25 75.425 206.626 74.9272 202.532 73.8744C198.7 72.8955 198.845 70.7095 198.836 68.87C198.819 67.0366 199.715 44.7874 199.715 44.7874C199.715 44.7874 183.526 52.2483 181.059 53.3559C178.593 54.4713 177.56 53.7301 177.008 52.9758C176.463 52.2205 172.14 43.002 172.14 43.002C172.14 43.002 161.538 63.2821 159.082 66.7091C156.642 70.14 154.213 66.9894 154.186 64.19C154.159 61.3898 152.497 23.3432 152.497 23.3432C152.497 23.3432 146.346 28.4439 143.821 30.6358C141.294 32.8238 139.102 32.2328 137.09 30.0881C135.077 27.9425 120.134 8.9835 120.134 8.9835C120.134 8.9835 114.373 32.4092 113.429 35.1926C112.483 37.9758 110.732 39.4176 107.533 38.4647C104.318 37.5113 96.6125 35.3999 96.6125 35.3999C96.6125 35.3999 110.841 70.7354 111.975 73.2966C113.117 75.8556 112.209 79.7263 108.56 77.6089C104.911 75.4991 86.8619 61.4005 86.8619 61.4005C86.8619 61.4005 86.7408 71.5778 86.55 72.4918C86.3667 73.4048 85.732 74.5059 83.0254 74.5063C80.3202 74.5146 62.4888 74.3937 62.4888 74.3937C62.4888 74.3937 72.5065 94.2881 73.2583 95.9631C74.0109 97.6422 75.0409 99.5746 71.964 102.044C68.6642 104.692 66.4802 106.227 66.4802 106.227C66.4802 106.227 106.015 127.492 107.814 128.651C109.613 129.811 110.175 131.047 109.942 133.125C109.718 135.205 104.968 144.452 104.968 144.452C104.968 144.452 137.99 133.474 140.134 133.774C142.27 134.071 143.854 133.539 145.532 138.645C147.195 143.758 151.094 169.299 151.094 169.299L154.534 168.556L154.859 168.486L158.309 167.742C158.309 167.742 151.277 142.878 150.69 137.532C150.088 132.194 151.754 132.025 153.576 130.874C155.401 129.718 190.022 126.101 190.022 126.101C190.022 126.101 181.868 119.638 180.803 117.837C179.739 116.038 179.731 114.683 180.897 112.884Z" fill="#960316"/>
<g filter="url(#filter0_d)">
<path d="M62.726 85.256C62.726 83.7307 63.056 82.374 63.716 81.186C64.376 79.9833 65.2927 79.052 66.466 78.392C67.654 77.7173 68.996 77.38 70.492 77.38C72.3253 77.38 73.8947 77.864 75.2 78.832C76.5053 79.8 77.378 81.12 77.818 82.792H73.682C73.374 82.1467 72.934 81.6553 72.362 81.318C71.8047 80.9807 71.1667 80.812 70.448 80.812C69.2893 80.812 68.3507 81.2153 67.632 82.022C66.9133 82.8287 66.554 83.9067 66.554 85.256C66.554 86.6053 66.9133 87.6833 67.632 88.49C68.3507 89.2967 69.2893 89.7 70.448 89.7C71.1667 89.7 71.8047 89.5313 72.362 89.194C72.934 88.8567 73.374 88.3653 73.682 87.72H77.818C77.378 89.392 76.5053 90.712 75.2 91.68C73.8947 92.6333 72.3253 93.11 70.492 93.11C68.996 93.11 67.654 92.78 66.466 92.12C65.2927 91.4453 64.376 90.514 63.716 89.326C63.056 88.138 62.726 86.7813 62.726 85.256ZM79.3738 86.84C79.3738 85.5787 79.6085 84.4713 80.0778 83.518C80.5618 82.5647 81.2145 81.8313 82.0358 81.318C82.8571 80.8047 83.7738 80.548 84.7858 80.548C85.6511 80.548 86.4065 80.724 87.0518 81.076C87.7118 81.428 88.2178 81.89 88.5698 82.462V80.724H92.3318V93H88.5698V91.262C88.2031 91.834 87.6898 92.296 87.0298 92.648C86.3845 93 85.6291 93.176 84.7638 93.176C83.7665 93.176 82.8571 92.9193 82.0358 92.406C81.2145 91.878 80.5618 91.1373 80.0778 90.184C79.6085 89.216 79.3738 88.1013 79.3738 86.84ZM88.5698 86.862C88.5698 85.9233 88.3058 85.1827 87.7778 84.64C87.2645 84.0973 86.6338 83.826 85.8858 83.826C85.1378 83.826 84.4998 84.0973 83.9718 84.64C83.4585 85.168 83.2018 85.9013 83.2018 86.84C83.2018 87.7787 83.4585 88.5267 83.9718 89.084C84.4998 89.6267 85.1378 89.898 85.8858 89.898C86.6338 89.898 87.2645 89.6267 87.7778 89.084C88.3058 88.5413 88.5698 87.8007 88.5698 86.862ZM102.533 80.592C103.971 80.592 105.115 81.0613 105.965 82C106.831 82.924 107.263 84.2 107.263 85.828V93H103.523V86.334C103.523 85.5127 103.311 84.8747 102.885 84.42C102.46 83.9653 101.888 83.738 101.169 83.738C100.451 83.738 99.8788 83.9653 99.4535 84.42C99.0281 84.8747 98.8155 85.5127 98.8155 86.334V93H95.0535V80.724H98.8155V82.352C99.1968 81.8093 99.7101 81.384 100.355 81.076C101.001 80.7533 101.727 80.592 102.533 80.592ZM109.13 86.84C109.13 85.5787 109.364 84.4713 109.834 83.518C110.318 82.5647 110.97 81.8313 111.792 81.318C112.613 80.8047 113.53 80.548 114.542 80.548C115.407 80.548 116.162 80.724 116.808 81.076C117.468 81.428 117.974 81.89 118.326 82.462V80.724H122.088V93H118.326V91.262C117.959 91.834 117.446 92.296 116.786 92.648C116.14 93 115.385 93.176 114.52 93.176C113.522 93.176 112.613 92.9193 111.792 92.406C110.97 91.878 110.318 91.1373 109.834 90.184C109.364 89.216 109.13 88.1013 109.13 86.84ZM118.326 86.862C118.326 85.9233 118.062 85.1827 117.534 84.64C117.02 84.0973 116.39 83.826 115.642 83.826C114.894 83.826 114.256 84.0973 113.728 84.64C113.214 85.168 112.958 85.9013 112.958 86.84C112.958 87.7787 113.214 88.5267 113.728 89.084C114.256 89.6267 114.894 89.898 115.642 89.898C116.39 89.898 117.02 89.6267 117.534 89.084C118.062 88.5413 118.326 87.8007 118.326 86.862ZM124.061 86.84C124.061 85.5787 124.296 84.4713 124.765 83.518C125.249 82.5647 125.902 81.8313 126.723 81.318C127.545 80.8047 128.461 80.548 129.473 80.548C130.28 80.548 131.013 80.7167 131.673 81.054C132.348 81.3913 132.876 81.846 133.257 82.418V76.72H137.019V93H133.257V91.24C132.905 91.8267 132.399 92.296 131.739 92.648C131.094 93 130.339 93.176 129.473 93.176C128.461 93.176 127.545 92.9193 126.723 92.406C125.902 91.878 125.249 91.1373 124.765 90.184C124.296 89.216 124.061 88.1013 124.061 86.84ZM133.257 86.862C133.257 85.9233 132.993 85.1827 132.465 84.64C131.952 84.0973 131.321 83.826 130.573 83.826C129.825 83.826 129.187 84.0973 128.659 84.64C128.146 85.168 127.889 85.9013 127.889 86.84C127.889 87.7787 128.146 88.5267 128.659 89.084C129.187 89.6267 129.825 89.898 130.573 89.898C131.321 89.898 131.952 89.6267 132.465 89.084C132.993 88.5413 133.257 87.8007 133.257 86.862ZM138.993 86.84C138.993 85.5787 139.228 84.4713 139.697 83.518C140.181 82.5647 140.834 81.8313 141.655 81.318C142.476 80.8047 143.393 80.548 144.405 80.548C145.27 80.548 146.026 80.724 146.671 81.076C147.331 81.428 147.837 81.89 148.189 82.462V80.724H151.951V93H148.189V91.262C147.822 91.834 147.309 92.296 146.649 92.648C146.004 93 145.248 93.176 144.383 93.176C143.386 93.176 142.476 92.9193 141.655 92.406C140.834 91.878 140.181 91.1373 139.697 90.184C139.228 89.216 138.993 88.1013 138.993 86.84ZM148.189 86.862C148.189 85.9233 147.925 85.1827 147.397 84.64C146.884 84.0973 146.253 83.826 145.505 83.826C144.757 83.826 144.119 84.0973 143.591 84.64C143.078 85.168 142.821 85.9013 142.821 86.84C142.821 87.7787 143.078 88.5267 143.591 89.084C144.119 89.6267 144.757 89.898 145.505 89.898C146.253 89.898 146.884 89.6267 147.397 89.084C147.925 88.5413 148.189 87.8007 148.189 86.862ZM167.211 93L163.999 87.17H163.097V93H159.335V77.556H165.649C166.866 77.556 167.9 77.7687 168.751 78.194C169.616 78.6193 170.261 79.206 170.687 79.954C171.112 80.6873 171.325 81.5087 171.325 82.418C171.325 83.4447 171.031 84.3613 170.445 85.168C169.873 85.9747 169.022 86.5467 167.893 86.884L171.457 93H167.211ZM163.097 84.508H165.429C166.118 84.508 166.631 84.3393 166.969 84.002C167.321 83.6647 167.497 83.188 167.497 82.572C167.497 81.9853 167.321 81.5233 166.969 81.186C166.631 80.8487 166.118 80.68 165.429 80.68H163.097V84.508ZM186.226 80.724L178.526 98.83H174.478L177.294 92.582L172.3 80.724H176.502L179.34 88.402L182.156 80.724H186.226ZM199.709 80.724V93H195.947V91.328C195.565 91.8707 195.045 92.3107 194.385 92.648C193.739 92.9707 193.021 93.132 192.229 93.132C191.29 93.132 190.461 92.9267 189.743 92.516C189.024 92.0907 188.467 91.482 188.071 90.69C187.675 89.898 187.477 88.9667 187.477 87.896V80.724H191.217V87.39C191.217 88.2113 191.429 88.8493 191.855 89.304C192.28 89.7587 192.852 89.986 193.571 89.986C194.304 89.986 194.883 89.7587 195.309 89.304C195.734 88.8493 195.947 88.2113 195.947 87.39V80.724H199.709ZM207.075 80.548C207.94 80.548 208.696 80.724 209.341 81.076C210.001 81.428 210.507 81.89 210.859 82.462V80.724H214.621V92.978C214.621 94.1073 214.394 95.1267 213.939 96.036C213.499 96.96 212.817 97.6933 211.893 98.236C210.984 98.7787 209.847 99.05 208.483 99.05C206.664 99.05 205.19 98.6173 204.061 97.752C202.932 96.9013 202.286 95.7427 202.125 94.276H205.843C205.96 94.7453 206.239 95.112 206.679 95.376C207.119 95.6547 207.662 95.794 208.307 95.794C209.084 95.794 209.7 95.5667 210.155 95.112C210.624 94.672 210.859 93.9607 210.859 92.978V91.24C210.492 91.812 209.986 92.2813 209.341 92.648C208.696 93 207.94 93.176 207.075 93.176C206.063 93.176 205.146 92.9193 204.325 92.406C203.504 91.878 202.851 91.1373 202.367 90.184C201.898 89.216 201.663 88.1013 201.663 86.84C201.663 85.5787 201.898 84.4713 202.367 83.518C202.851 82.5647 203.504 81.8313 204.325 81.318C205.146 80.8047 206.063 80.548 207.075 80.548ZM210.859 86.862C210.859 85.9233 210.595 85.1827 210.067 84.64C209.554 84.0973 208.923 83.826 208.175 83.826C207.427 83.826 206.789 84.0973 206.261 84.64C205.748 85.168 205.491 85.9013 205.491 86.84C205.491 87.7787 205.748 88.5267 206.261 89.084C206.789 89.6267 207.427 89.898 208.175 89.898C208.923 89.898 209.554 89.6267 210.067 89.084C210.595 88.5413 210.859 87.8007 210.859 86.862ZM216.595 86.84C216.595 85.5787 216.829 84.4713 217.299 83.518C217.783 82.5647 218.435 81.8313 219.257 81.318C220.078 80.8047 220.995 80.548 222.007 80.548C222.872 80.548 223.627 80.724 224.273 81.076C224.933 81.428 225.439 81.89 225.791 82.462V80.724H229.553V93H225.791V91.262C225.424 91.834 224.911 92.296 224.251 92.648C223.605 93 222.85 93.176 221.985 93.176C220.987 93.176 220.078 92.9193 219.257 92.406C218.435 91.878 217.783 91.1373 217.299 90.184C216.829 89.216 216.595 88.1013 216.595 86.84ZM225.791 86.862C225.791 85.9233 225.527 85.1827 224.999 84.64C224.485 84.0973 223.855 83.826 223.107 83.826C222.359 83.826 221.721 84.0973 221.193 84.64C220.679 85.168 220.423 85.9013 220.423 86.84C220.423 87.7787 220.679 88.5267 221.193 89.084C221.721 89.6267 222.359 89.898 223.107 89.898C223.855 89.898 224.485 89.6267 224.999 89.084C225.527 88.5413 225.791 87.8007 225.791 86.862ZM239.776 93L236.036 87.852V93H232.274V76.72H236.036V85.718L239.754 80.724H244.396L239.292 86.884L244.44 93H239.776ZM257.996 80.724V93H254.234V91.328C253.852 91.8707 253.332 92.3107 252.672 92.648C252.026 92.9707 251.308 93.132 250.516 93.132C249.577 93.132 248.748 92.9267 248.03 92.516C247.311 92.0907 246.754 91.482 246.358 90.69C245.962 89.898 245.764 88.9667 245.764 87.896V80.724H249.504V87.39C249.504 88.2113 249.716 88.8493 250.142 89.304C250.567 89.7587 251.139 89.986 251.858 89.986C252.591 89.986 253.17 89.7587 253.596 89.304C254.021 88.8493 254.234 88.2113 254.234 87.39V80.724H257.996Z" fill="white"/>
</g>
<g filter="url(#filter1_d)">
<path d="M71.319 101.772H69.408V99.9H71.319V101.772ZM74.712 104.567C74.465 104.489 74.179 104.372 74.023 104.255C73.997 105.126 73.945 105.243 73.659 105.243H72.619C72.281 105.243 72.229 105.204 72.229 104.918V102.669H74.712V104.567ZM66.314 108.246V102.669H68.498V103.267C68.498 104.242 68.186 105.386 66.418 106.231C66.613 106.361 66.977 106.673 67.094 106.868C68.979 105.932 69.408 104.502 69.408 103.28V102.669H71.319V104.918C71.319 105.854 71.527 106.101 72.489 106.101H73.776C74.283 106.101 74.556 105.958 74.712 105.451V108.246H66.314ZM76.155 99.9V98.977H64.819V99.9H68.459V101.772H65.378V109.936H66.314V109.143H74.712V109.884H75.687V101.772H72.281V99.9H76.155ZM80.315 108.051V104.424H86.763V108.051H80.315ZM86.763 99.965V103.475H80.315V99.965H86.763ZM79.34 99.016V109.845H80.315V109H86.763V109.793H87.777V99.016H79.34ZM102.142 101.811V100.849H96.994V98.132H95.993V100.849H90.884V101.811H95.395C94.303 104.034 92.418 106.14 90.442 107.167C90.663 107.349 90.988 107.713 91.131 107.947C93.042 106.842 94.797 104.879 95.993 102.63V106.608H93.458V107.57H95.993V109.988H96.994V107.57H99.464V106.608H96.994V102.63C98.164 104.879 99.906 106.855 101.869 107.934C102.012 107.661 102.35 107.284 102.584 107.089C100.543 106.101 98.671 104.034 97.592 101.811H102.142ZM109.604 98.769H108.382C108.434 99.081 108.473 99.562 108.473 99.848C108.473 100.316 108.447 100.758 108.421 101.174H106.133C105.639 101.174 105.106 101.148 104.651 101.096V102.201C105.106 102.149 105.639 102.149 106.146 102.149H108.33C107.979 104.827 107.043 106.452 105.756 107.622C105.366 107.999 104.833 108.363 104.417 108.584L105.366 109.351C107.537 107.856 108.889 105.88 109.357 102.149H112.997C112.997 103.54 112.828 106.738 112.334 107.726C112.191 108.051 111.957 108.155 111.58 108.155C111.034 108.155 110.345 108.103 109.643 108.012L109.773 109.091C110.449 109.13 111.203 109.182 111.866 109.182C112.581 109.182 112.997 108.935 113.257 108.389C113.842 107.141 113.998 103.358 114.05 102.11C114.05 101.941 114.076 101.694 114.115 101.473L113.387 101.109C113.166 101.148 112.906 101.174 112.555 101.174H109.461C109.487 100.745 109.513 100.303 109.526 99.835C109.539 99.523 109.565 99.068 109.604 98.769ZM122.305 100.225V101.98H118.47C118.015 101.98 117.534 101.941 117.261 101.915V103.033C117.534 103.007 118.015 102.994 118.496 102.994H122.305C122.305 105.659 121.239 107.583 118.782 108.74L119.796 109.494C122.422 107.96 123.384 105.854 123.397 102.994H126.842C127.245 102.994 127.778 103.007 127.986 103.033V101.928C127.778 101.954 127.284 101.98 126.855 101.98H123.397V100.238C123.397 99.848 123.436 99.198 123.475 98.938H122.188C122.253 99.198 122.305 99.835 122.305 100.225ZM138.945 98.522L138.256 98.821C138.607 99.302 139.036 100.069 139.296 100.589L139.075 100.459C138.867 100.537 138.568 100.576 138.217 100.576H134.707C134.798 100.42 134.889 100.264 134.967 100.121C135.097 99.874 135.331 99.432 135.552 99.094L134.369 98.717C134.291 99.055 134.083 99.51 133.953 99.744C133.355 100.927 132.016 102.89 129.78 104.281L130.651 104.944C132.107 103.943 133.264 102.669 134.096 101.512H138.49C138.23 102.578 137.567 103.969 136.722 105.113C135.812 104.476 134.837 103.839 133.979 103.345L133.277 104.073C134.109 104.593 135.11 105.269 136.033 105.945C134.876 107.206 133.199 108.402 131.002 109.065L131.938 109.884C134.135 109.052 135.734 107.869 136.891 106.582C137.437 106.998 137.918 107.401 138.308 107.752L139.075 106.855C138.659 106.517 138.152 106.127 137.593 105.724C138.568 104.398 139.283 102.864 139.634 101.668C139.699 101.46 139.829 101.161 139.933 100.979L139.322 100.615L140.011 100.303C139.738 99.77 139.27 98.99 138.945 98.522ZM140.375 98.002L139.686 98.288C140.05 98.782 140.479 99.51 140.765 100.082L141.467 99.77C141.22 99.289 140.713 98.47 140.375 98.002ZM148.409 103.059C148.123 102.318 147.369 101.278 146.628 100.524L145.861 100.927C146.186 101.278 146.524 101.681 146.81 102.11C146.069 102.292 145.341 102.474 144.665 102.643L144.548 99.887C145.757 99.64 147.083 99.276 148.058 98.873L147.395 98.171C146.68 98.522 145.497 98.886 144.418 99.159L143.586 98.925L143.716 102.864C143.3 102.968 142.91 103.059 142.572 103.137L142.832 104.06C144.054 103.735 145.692 103.293 147.265 102.864C147.395 103.098 147.499 103.306 147.564 103.501L148.409 103.059ZM148.019 105.373V106.647H145.198V105.373H148.019ZM151.867 106.647H148.929V105.373H151.867V106.647ZM148.929 108.714V107.388H151.867V108.714H148.929ZM145.198 108.714V107.388H148.019V108.714H145.198ZM144.288 109.988H145.198V109.52H151.867V109.936H152.816V104.58H144.288V109.988ZM148.513 98.847V99.666H150.034C149.852 101.408 149.371 102.773 147.668 103.514C147.876 103.67 148.136 103.995 148.227 104.203C150.151 103.319 150.723 101.733 150.944 99.666H152.92C152.816 101.837 152.699 102.669 152.517 102.877C152.413 103.007 152.296 103.02 152.101 103.007C151.906 103.007 151.373 103.007 150.814 102.955C150.957 103.202 151.048 103.54 151.074 103.813C151.646 103.839 152.218 103.852 152.53 103.826C152.868 103.787 153.102 103.696 153.297 103.462C153.622 103.098 153.739 102.071 153.869 99.25C153.882 99.107 153.882 98.847 153.882 98.847H148.513ZM157.002 101.135H166.063V103.15H166.999V100.277H164.984C165.426 99.757 165.907 99.133 166.31 98.548L165.309 98.21C164.984 98.821 164.412 99.679 163.918 100.277H161.617L162.176 100.056C162.007 99.51 161.565 98.678 161.123 98.067L160.278 98.379C160.668 98.951 161.084 99.731 161.24 100.277H158.588L159.03 100.056C158.796 99.562 158.263 98.821 157.782 98.288L156.976 98.652C157.366 99.133 157.821 99.796 158.068 100.277H156.079V103.15H157.002V101.135ZM167.233 105.412H161.994V105.087C163.138 104.541 164.347 103.722 165.153 102.89L164.529 102.422L164.334 102.474H157.99V103.332H163.359C162.826 103.748 162.163 104.164 161.526 104.476H161.032V105.412H155.832V106.309H161.032V108.818C161.032 109.013 160.967 109.078 160.694 109.091C160.447 109.104 159.563 109.104 158.575 109.078C158.718 109.325 158.913 109.728 158.978 110.001C160.161 110.001 160.902 109.988 161.37 109.845C161.838 109.702 161.994 109.416 161.994 108.844V106.309H167.233V105.412ZM171.978 107.323C171.978 108.61 172.42 109.234 174.838 109.234C176.463 109.234 177.763 109.143 178.92 108.974L178.972 107.856C177.672 108.103 176.424 108.233 174.916 108.233C173.369 108.233 173.031 107.947 173.031 107.05V103.176C175.332 102.708 177.724 102.227 177.945 102.188C177.555 102.968 176.606 104.398 175.631 105.282L176.541 105.828C177.581 104.749 178.608 103.124 179.206 102.045C179.297 101.876 179.427 101.655 179.518 101.525L178.751 100.927C178.595 101.018 178.348 101.096 178.062 101.161C177.516 101.278 175.241 101.746 173.031 102.175V100.147C173.031 99.77 173.057 99.328 173.122 98.951H171.887C171.952 99.328 171.978 99.757 171.978 100.147V102.37C170.6 102.63 169.365 102.851 168.78 102.929L168.975 104.008C169.508 103.891 170.665 103.657 171.978 103.384V107.323ZM183.951 99.471L183.21 100.264C184.172 100.914 185.797 102.305 186.447 102.981L187.266 102.162C186.538 101.434 184.874 100.082 183.951 99.471ZM182.833 108.181L183.522 109.247C185.693 108.844 187.331 108.051 188.631 107.232C190.594 105.997 192.115 104.229 192.999 102.604L192.375 101.499C191.621 103.098 190.035 105.022 188.033 106.283C186.798 107.05 185.108 107.843 182.833 108.181ZM200.968 98.795L199.785 98.418C199.707 98.756 199.499 99.211 199.369 99.445C198.758 100.628 197.432 102.578 195.196 103.969L196.067 104.645C197.523 103.644 198.68 102.37 199.512 101.2H203.906C203.646 102.266 202.983 103.67 202.138 104.801C201.228 104.164 200.253 103.54 199.395 103.046L198.693 103.761C199.525 104.281 200.513 104.957 201.449 105.633C200.279 106.894 198.615 108.09 196.418 108.766L197.354 109.572C199.551 108.753 201.15 107.557 202.307 106.27C202.84 106.699 203.334 107.102 203.724 107.453L204.491 106.556C204.075 106.218 203.555 105.815 203.009 105.412C203.997 104.086 204.699 102.565 205.037 101.369C205.115 101.161 205.232 100.849 205.349 100.667L204.491 100.147C204.27 100.225 203.984 100.277 203.633 100.277H200.11C200.214 100.121 200.305 99.965 200.383 99.809C200.513 99.575 200.747 99.133 200.968 98.795ZM208.326 103.371V104.645C208.729 104.606 209.418 104.58 210.133 104.58H217.27C217.855 104.58 218.401 104.632 218.661 104.645V103.371C218.375 103.397 217.907 103.436 217.257 103.436H210.133C209.405 103.436 208.716 103.397 208.326 103.371Z" fill="white"/>
</g>
<defs>
<filter id="filter0_d" x="58.7261" y="76.72" width="203.27" height="30.33" filterUnits="userSpaceOnUse" color-interpolation-filters="sRGB">
<feFlood flood-opacity="0" result="BackgroundImageFix"/>
<feColorMatrix in="SourceAlpha" type="matrix" values="0 0 0 0 0 0 0 0 0 0 0 0 0 0 0 0 0 0 127 0"/>
<feOffset dy="4"/>
<feGaussianBlur stdDeviation="2"/>
<feColorMatrix type="matrix" values="0 0 0 0 0 0 0 0 0 0 0 0 0 0 0 0 0 0 0.2 0"/>
<feBlend mode="normal" in2="BackgroundImageFix" result="effect1_dropShadow"/>
<feBlend mode="normal" in="SourceGraphic" in2="effect1_dropShadow" result="shape"/>
</filter>
<filter id="filter1_d" x="60.8188" y="98.002" width="161.842" height="19.999" filterUnits="userSpaceOnUse" color-interpolation-filters="sRGB">
<feFlood flood-opacity="0" result="BackgroundImageFix"/>
<feColorMatrix in="SourceAlpha" type="matrix" values="0 0 0 0 0 0 0 0 0 0 0 0 0 0 0 0 0 0 127 0"/>
<feOffset dy="4"/>
<feGaussianBlur stdDeviation="2"/>
<feColorMatrix type="matrix" values="0 0 0 0 0 0 0 0 0 0 0 0 0 0 0 0 0 0 0.2 0"/>
<feBlend mode="normal" in2="BackgroundImageFix" result="effect1_dropShadow"/>
<feBlend mode="normal" in="SourceGraphic" in2="effect1_dropShadow" result="shape"/>
</filter>
</defs>
</svg>
