<svg width="384" height="117" viewBox="0 0 384 117" fill="none" xmlns="http://www.w3.org/2000/svg">
<path d="M82.8317 65.9303C83.2233 64.8112 93.3518 42.0252 93.3518 42.0252C93.3518 42.0252 91.8689 42.0933 89.5196 42.0503C87.3217 42.0135 87.1196 40.8125 86.8781 39.8188C86.6338 38.8293 84.2596 26.6805 84.2596 26.6805C84.2596 26.6805 76.4635 32.7972 75.2717 33.7135C74.0818 34.6337 73.4277 34.3658 73.0321 34.0288C72.6405 33.6903 69.1186 29.2602 69.1186 29.2602C69.1186 29.2602 65.9907 41.592 65.1025 43.7613C64.2238 45.9307 62.5056 44.539 62.1313 43.0283C61.757 41.5173 55.9704 21.1532 55.9704 21.1532C55.9704 21.1532 53.2995 24.7028 52.2156 26.2129C51.1304 27.7212 49.869 27.6834 48.5051 26.7821C47.1409 25.8805 36.6245 17.5476 36.6245 17.5476C36.6245 17.5476 36.5189 30.9582 36.3657 32.5851C36.212 34.212 35.4502 35.217 33.5977 35.1129C31.7365 35.0106 27.2985 34.8594 27.2985 34.8594C27.2985 34.8594 39.5321 52.1415 40.4747 53.3809C41.4208 54.6182 41.4272 56.8284 39.1816 56.1524C36.9376 55.4804 25.3658 50.1757 25.3658 50.1757C25.3658 50.1757 26.6077 55.6957 26.6219 56.2146C26.6401 56.732 26.4383 57.4091 24.9747 57.7573C23.5129 58.1096 13.8546 60.3369 13.8546 60.3369C13.8546 60.3369 21.8276 69.8089 22.4494 70.6182C23.0721 71.4296 23.8773 72.3424 22.5307 74.0736C21.0864 75.9303 20.1026 77.0412 20.1026 77.0412C20.1026 77.0412 44.2136 83.4593 45.3355 83.8549C46.4573 84.2509 46.9198 84.8472 47.061 86.001C47.2072 87.1549 45.8263 92.7668 45.8263 92.7668C45.8263 92.7668 62.2736 82.5838 63.4717 82.4699C64.6649 82.356 65.453 81.8646 67.0163 84.4107C68.5728 86.9623 73.9619 100.275 73.9619 100.275L75.7273 99.431L75.8936 99.3515L77.664 98.5052C77.664 98.5052 70.6669 85.9614 69.663 83.1455C68.6513 80.3357 69.5305 80.0301 70.3681 79.1732C71.2067 78.3134 89.4641 71.9061 89.4641 71.9061C89.4641 71.9061 84.2245 69.4589 83.4169 68.6213C82.6107 67.7855 82.4323 67.0534 82.8317 65.9303Z" fill="#B1B1B1" fill-opacity="0.77"/>
<g filter="url(#filter0_d)">
<path d="M112.99 73.4571C112.99 71.3771 113.44 69.5271 114.34 67.9071C115.24 66.2671 116.49 64.9971 118.09 64.0971C119.71 63.1771 121.54 62.7171 123.58 62.7171C126.08 62.7171 128.22 63.3771 130 64.6971C131.78 66.0171 132.97 67.8171 133.57 70.0971H127.93C127.51 69.2171 126.91 68.5471 126.13 68.0871C125.37 67.6271 124.5 67.3971 123.52 67.3971C121.94 67.3971 120.66 67.9471 119.68 69.0471C118.7 70.1471 118.21 71.6171 118.21 73.4571C118.21 75.2971 118.7 76.7671 119.68 77.8671C120.66 78.9671 121.94 79.5171 123.52 79.5171C124.5 79.5171 125.37 79.2871 126.13 78.8271C126.91 78.3671 127.51 77.6971 127.93 76.8171H133.57C132.97 79.0971 131.78 80.8971 130 82.2171C128.22 83.5171 126.08 84.1671 123.58 84.1671C121.54 84.1671 119.71 83.7171 118.09 82.8171C116.49 81.8971 115.24 80.6271 114.34 79.0071C113.44 77.3871 112.99 75.5371 112.99 73.4571ZM135.692 75.6171C135.692 73.8971 136.012 72.3871 136.652 71.0871C137.312 69.7871 138.202 68.7871 139.322 68.0871C140.442 67.3871 141.692 67.0371 143.072 67.0371C144.252 67.0371 145.282 67.2771 146.162 67.7571C147.062 68.2371 147.752 68.8671 148.232 69.6471V67.2771H153.362V84.0171H148.232V81.6471C147.732 82.4271 147.032 83.0571 146.132 83.5371C145.252 84.0171 144.222 84.2571 143.042 84.2571C141.682 84.2571 140.442 83.9071 139.322 83.2071C138.202 82.4871 137.312 81.4771 136.652 80.1771C136.012 78.8571 135.692 77.3371 135.692 75.6171ZM148.232 75.6471C148.232 74.3671 147.872 73.3571 147.152 72.6171C146.452 71.8771 145.592 71.5071 144.572 71.5071C143.552 71.5071 142.682 71.8771 141.962 72.6171C141.262 73.3371 140.912 74.3371 140.912 75.6171C140.912 76.8971 141.262 77.9171 141.962 78.6771C142.682 79.4171 143.552 79.7871 144.572 79.7871C145.592 79.7871 146.452 79.4171 147.152 78.6771C147.872 77.9371 148.232 76.9271 148.232 75.6471ZM167.273 67.0971C169.233 67.0971 170.793 67.7371 171.953 69.0171C173.133 70.2771 173.723 72.0171 173.723 74.2371V84.0171H168.623V74.9271C168.623 73.8071 168.333 72.9371 167.753 72.3171C167.173 71.6971 166.393 71.3871 165.413 71.3871C164.433 71.3871 163.653 71.6971 163.073 72.3171C162.493 72.9371 162.203 73.8071 162.203 74.9271V84.0171H157.073V67.2771H162.203V69.4971C162.723 68.7571 163.423 68.1771 164.303 67.7571C165.183 67.3171 166.173 67.0971 167.273 67.0971ZM176.268 75.6171C176.268 73.8971 176.588 72.3871 177.228 71.0871C177.888 69.7871 178.778 68.7871 179.898 68.0871C181.018 67.3871 182.268 67.0371 183.648 67.0371C184.828 67.0371 185.858 67.2771 186.738 67.7571C187.638 68.2371 188.328 68.8671 188.808 69.6471V67.2771H193.938V84.0171H188.808V81.6471C188.308 82.4271 187.608 83.0571 186.708 83.5371C185.828 84.0171 184.798 84.2571 183.618 84.2571C182.258 84.2571 181.018 83.9071 179.898 83.2071C178.778 82.4871 177.888 81.4771 177.228 80.1771C176.588 78.8571 176.268 77.3371 176.268 75.6171ZM188.808 75.6471C188.808 74.3671 188.448 73.3571 187.728 72.6171C187.028 71.8771 186.168 71.5071 185.148 71.5071C184.128 71.5071 183.258 71.8771 182.538 72.6171C181.838 73.3371 181.488 74.3371 181.488 75.6171C181.488 76.8971 181.838 77.9171 182.538 78.6771C183.258 79.4171 184.128 79.7871 185.148 79.7871C186.168 79.7871 187.028 79.4171 187.728 78.6771C188.448 77.9371 188.808 76.9271 188.808 75.6471ZM196.629 75.6171C196.629 73.8971 196.949 72.3871 197.589 71.0871C198.249 69.7871 199.139 68.7871 200.259 68.0871C201.379 67.3871 202.629 67.0371 204.009 67.0371C205.109 67.0371 206.109 67.2671 207.009 67.7271C207.929 68.1871 208.649 68.8071 209.169 69.5871V61.8171H214.299V84.0171H209.169V81.6171C208.689 82.4171 207.999 83.0571 207.099 83.5371C206.219 84.0171 205.189 84.2571 204.009 84.2571C202.629 84.2571 201.379 83.9071 200.259 83.2071C199.139 82.4871 198.249 81.4771 197.589 80.1771C196.949 78.8571 196.629 77.3371 196.629 75.6171ZM209.169 75.6471C209.169 74.3671 208.809 73.3571 208.089 72.6171C207.389 71.8771 206.529 71.5071 205.509 71.5071C204.489 71.5071 203.619 71.8771 202.899 72.6171C202.199 73.3371 201.849 74.3371 201.849 75.6171C201.849 76.8971 202.199 77.9171 202.899 78.6771C203.619 79.4171 204.489 79.7871 205.509 79.7871C206.529 79.7871 207.389 79.4171 208.089 78.6771C208.809 77.9371 209.169 76.9271 209.169 75.6471ZM216.99 75.6171C216.99 73.8971 217.31 72.3871 217.95 71.0871C218.61 69.7871 219.5 68.7871 220.62 68.0871C221.74 67.3871 222.99 67.0371 224.37 67.0371C225.55 67.0371 226.58 67.2771 227.46 67.7571C228.36 68.2371 229.05 68.8671 229.53 69.6471V67.2771H234.66V84.0171H229.53V81.6471C229.03 82.4271 228.33 83.0571 227.43 83.5371C226.55 84.0171 225.52 84.2571 224.34 84.2571C222.98 84.2571 221.74 83.9071 220.62 83.2071C219.5 82.4871 218.61 81.4771 217.95 80.1771C217.31 78.8571 216.99 77.3371 216.99 75.6171ZM229.53 75.6471C229.53 74.3671 229.17 73.3571 228.45 72.6171C227.75 71.8771 226.89 71.5071 225.87 71.5071C224.85 71.5071 223.98 71.8771 223.26 72.6171C222.56 73.3371 222.21 74.3371 222.21 75.6171C222.21 76.8971 222.56 77.9171 223.26 78.6771C223.98 79.4171 224.85 79.7871 225.87 79.7871C226.89 79.7871 227.75 79.4171 228.45 78.6771C229.17 77.9371 229.53 76.9271 229.53 75.6471ZM255.469 84.0171L251.089 76.0671H249.859V84.0171H244.729V62.9571H253.339C254.999 62.9571 256.409 63.2471 257.569 63.8271C258.749 64.4071 259.629 65.2071 260.209 66.2271C260.789 67.2271 261.079 68.3471 261.079 69.5871C261.079 70.9871 260.679 72.2371 259.879 73.3371C259.099 74.4371 257.939 75.2171 256.399 75.6771L261.259 84.0171H255.469ZM249.859 72.4371H253.039C253.979 72.4371 254.679 72.2071 255.139 71.7471C255.619 71.2871 255.859 70.6371 255.859 69.7971C255.859 68.9971 255.619 68.3671 255.139 67.9071C254.679 67.4471 253.979 67.2171 253.039 67.2171H249.859V72.4371ZM281.399 67.2771L270.899 91.9671H265.379L269.219 83.4471L262.409 67.2771H268.139L272.009 77.7471L275.849 67.2771H281.399ZM299.785 67.2771V84.0171H294.655V81.7371C294.135 82.4771 293.425 83.0771 292.525 83.5371C291.645 83.9771 290.665 84.1971 289.585 84.1971C288.305 84.1971 287.175 83.9171 286.195 83.3571C285.215 82.7771 284.455 81.9471 283.915 80.8671C283.375 79.7871 283.105 78.5171 283.105 77.0571V67.2771H288.205V76.3671C288.205 77.4871 288.495 78.3571 289.075 78.9771C289.655 79.5971 290.435 79.9071 291.415 79.9071C292.415 79.9071 293.205 79.5971 293.785 78.9771C294.365 78.3571 294.655 77.4871 294.655 76.3671V67.2771H299.785ZM309.829 67.0371C311.009 67.0371 312.039 67.2771 312.919 67.7571C313.819 68.2371 314.509 68.8671 314.989 69.6471V67.2771H320.119V83.9871C320.119 85.5271 319.809 86.9171 319.189 88.1571C318.589 89.4171 317.659 90.4171 316.399 91.1571C315.159 91.8971 313.609 92.2671 311.749 92.2671C309.269 92.2671 307.259 91.6771 305.719 90.4971C304.179 89.3371 303.299 87.7571 303.079 85.7571H308.149C308.309 86.3971 308.689 86.8971 309.289 87.2571C309.889 87.6371 310.629 87.8271 311.509 87.8271C312.569 87.8271 313.409 87.5171 314.029 86.8971C314.669 86.2971 314.989 85.3271 314.989 83.9871V81.6171C314.489 82.3971 313.799 83.0371 312.919 83.5371C312.039 84.0171 311.009 84.2571 309.829 84.2571C308.449 84.2571 307.199 83.9071 306.079 83.2071C304.959 82.4871 304.069 81.4771 303.409 80.1771C302.769 78.8571 302.449 77.3371 302.449 75.6171C302.449 73.8971 302.769 72.3871 303.409 71.0871C304.069 69.7871 304.959 68.7871 306.079 68.0871C307.199 67.3871 308.449 67.0371 309.829 67.0371ZM314.989 75.6471C314.989 74.3671 314.629 73.3571 313.909 72.6171C313.209 71.8771 312.349 71.5071 311.329 71.5071C310.309 71.5071 309.439 71.8771 308.719 72.6171C308.019 73.3371 307.669 74.3371 307.669 75.6171C307.669 76.8971 308.019 77.9171 308.719 78.6771C309.439 79.4171 310.309 79.7871 311.329 79.7871C312.349 79.7871 313.209 79.4171 313.909 78.6771C314.629 77.9371 314.989 76.9271 314.989 75.6471ZM322.811 75.6171C322.811 73.8971 323.131 72.3871 323.771 71.0871C324.431 69.7871 325.321 68.7871 326.441 68.0871C327.561 67.3871 328.811 67.0371 330.191 67.0371C331.371 67.0371 332.401 67.2771 333.281 67.7571C334.181 68.2371 334.871 68.8671 335.351 69.6471V67.2771H340.481V84.0171H335.351V81.6471C334.851 82.4271 334.151 83.0571 333.251 83.5371C332.371 84.0171 331.341 84.2571 330.161 84.2571C328.801 84.2571 327.561 83.9071 326.441 83.2071C325.321 82.4871 324.431 81.4771 323.771 80.1771C323.131 78.8571 322.811 77.3371 322.811 75.6171ZM335.351 75.6471C335.351 74.3671 334.991 73.3571 334.271 72.6171C333.571 71.8771 332.711 71.5071 331.691 71.5071C330.671 71.5071 329.801 71.8771 329.081 72.6171C328.381 73.3371 328.031 74.3371 328.031 75.6171C328.031 76.8971 328.381 77.9171 329.081 78.6771C329.801 79.4171 330.671 79.7871 331.691 79.7871C332.711 79.7871 333.571 79.4171 334.271 78.6771C334.991 77.9371 335.351 76.9271 335.351 75.6471ZM354.422 84.0171L349.322 76.9971V84.0171H344.192V61.8171H349.322V74.0871L354.392 67.2771H360.722L353.762 75.6771L360.782 84.0171H354.422ZM379.267 67.2771V84.0171H374.137V81.7371C373.617 82.4771 372.907 83.0771 372.007 83.5371C371.127 83.9771 370.147 84.1971 369.067 84.1971C367.787 84.1971 366.657 83.9171 365.677 83.3571C364.697 82.7771 363.937 81.9471 363.397 80.8671C362.857 79.7871 362.587 78.5171 362.587 77.0571V67.2771H367.687V76.3671C367.687 77.4871 367.977 78.3571 368.557 78.9771C369.137 79.5971 369.917 79.9071 370.897 79.9071C371.897 79.9071 372.687 79.5971 373.267 78.9771C373.847 78.3571 374.137 77.4871 374.137 76.3671V67.2771H379.267Z" fill="white"/>
</g>
<g filter="url(#filter1_d)">
<path d="M124.445 42.6771H122.24V40.5171H124.445V42.6771ZM128.36 45.9021C128.075 45.8121 127.745 45.6771 127.565 45.5421C127.535 46.5471 127.475 46.6821 127.145 46.6821H125.945C125.555 46.6821 125.495 46.6371 125.495 46.3071V43.7121H128.36V45.9021ZM118.67 50.1471V43.7121H121.19V44.4021C121.19 45.5271 120.83 46.8471 118.79 47.8221C119.015 47.9721 119.435 48.3321 119.57 48.5571C121.745 47.4771 122.24 45.8271 122.24 44.4171V43.7121H124.445V46.3071C124.445 47.3871 124.685 47.6721 125.795 47.6721H127.28C127.865 47.6721 128.18 47.5071 128.36 46.9221V50.1471H118.67ZM130.025 40.5171V39.4521H116.945V40.5171H121.145V42.6771H117.59V52.0971H118.67V51.1821H128.36V52.0371H129.485V42.6771H125.555V40.5171H130.025ZM134.825 49.9221V45.7371H142.265V49.9221H134.825ZM142.265 40.5921V44.6421H134.825V40.5921H142.265ZM133.7 39.4971V51.9921H134.825V51.0171H142.265V51.9321H143.435V39.4971H133.7ZM160.01 42.7221V41.6121H154.07V38.4771H152.915V41.6121H147.02V42.7221H152.225C150.965 45.2871 148.79 47.7171 146.51 48.9021C146.765 49.1121 147.14 49.5321 147.305 49.8021C149.51 48.5271 151.535 46.2621 152.915 43.6671V48.2571H149.99V49.3671H152.915V52.1571H154.07V49.3671H156.92V48.2571H154.07V43.6671C155.42 46.2621 157.43 48.5421 159.695 49.7871C159.86 49.4721 160.25 49.0371 160.52 48.8121C158.165 47.6721 156.005 45.2871 154.76 42.7221H160.01ZM168.62 39.2121H167.21C167.27 39.5721 167.315 40.1271 167.315 40.4571C167.315 40.9971 167.285 41.5071 167.255 41.9871H164.615C164.045 41.9871 163.43 41.9571 162.905 41.8971V43.1721C163.43 43.1121 164.045 43.1121 164.63 43.1121H167.15C166.745 46.2021 165.665 48.0771 164.18 49.4271C163.73 49.8621 163.115 50.2821 162.635 50.5371L163.73 51.4221C166.235 49.6971 167.795 47.4171 168.335 43.1121H172.535C172.535 44.7171 172.34 48.4071 171.77 49.5471C171.605 49.9221 171.335 50.0421 170.9 50.0421C170.27 50.0421 169.475 49.9821 168.665 49.8771L168.815 51.1221C169.595 51.1671 170.465 51.2271 171.23 51.2271C172.055 51.2271 172.535 50.9421 172.835 50.3121C173.51 48.8721 173.69 44.5071 173.75 43.0671C173.75 42.8721 173.78 42.5871 173.825 42.3321L172.985 41.9121C172.73 41.9571 172.43 41.9871 172.025 41.9871H168.455C168.485 41.4921 168.515 40.9821 168.53 40.4421C168.545 40.0821 168.575 39.5571 168.62 39.2121ZM183.275 40.8921V42.9171H178.85C178.325 42.9171 177.77 42.8721 177.455 42.8421V44.1321C177.77 44.1021 178.325 44.0871 178.88 44.0871H183.275C183.275 47.1621 182.045 49.3821 179.21 50.7171L180.38 51.5871C183.41 49.8171 184.52 47.3871 184.535 44.0871H188.51C188.975 44.0871 189.59 44.1021 189.83 44.1321V42.8571C189.59 42.8871 189.02 42.9171 188.525 42.9171H184.535V40.9071C184.535 40.4571 184.58 39.7071 184.625 39.4071H183.14C183.215 39.7071 183.275 40.4421 183.275 40.8921ZM202.475 38.9271L201.68 39.2721C202.085 39.8271 202.58 40.7121 202.88 41.3121L202.625 41.1621C202.385 41.2521 202.04 41.2971 201.635 41.2971H197.585C197.69 41.1171 197.795 40.9371 197.885 40.7721C198.035 40.4871 198.305 39.9771 198.56 39.5871L197.195 39.1521C197.105 39.5421 196.865 40.0671 196.715 40.3371C196.025 41.7021 194.48 43.9671 191.9 45.5721L192.905 46.3371C194.585 45.1821 195.92 43.7121 196.88 42.3771H201.95C201.65 43.6071 200.885 45.2121 199.91 46.5321C198.86 45.7971 197.735 45.0621 196.745 44.4921L195.935 45.3321C196.895 45.9321 198.05 46.7121 199.115 47.4921C197.78 48.9471 195.845 50.3271 193.31 51.0921L194.39 52.0371C196.925 51.0771 198.77 49.7121 200.105 48.2271C200.735 48.7071 201.29 49.1721 201.74 49.5771L202.625 48.5421C202.145 48.1521 201.56 47.7021 200.915 47.2371C202.04 45.7071 202.865 43.9371 203.27 42.5571C203.345 42.3171 203.495 41.9721 203.615 41.7621L202.91 41.3421L203.705 40.9821C203.39 40.3671 202.85 39.4671 202.475 38.9271ZM204.125 38.3271L203.33 38.6571C203.75 39.2271 204.245 40.0671 204.575 40.7271L205.385 40.3671C205.1 39.8121 204.515 38.8671 204.125 38.3271ZM213.395 44.1621C213.065 43.3071 212.195 42.1071 211.34 41.2371L210.455 41.7021C210.83 42.1071 211.22 42.5721 211.55 43.0671C210.695 43.2771 209.855 43.4871 209.075 43.6821L208.94 40.5021C210.335 40.2171 211.865 39.7971 212.99 39.3321L212.225 38.5221C211.4 38.9271 210.035 39.3471 208.79 39.6621L207.83 39.3921L207.98 43.9371C207.5 44.0571 207.05 44.1621 206.66 44.2521L206.96 45.3171C208.37 44.9421 210.26 44.4321 212.075 43.9371C212.225 44.2071 212.345 44.4471 212.42 44.6721L213.395 44.1621ZM212.945 46.8321V48.3021H209.69V46.8321H212.945ZM217.385 48.3021H213.995V46.8321H217.385V48.3021ZM213.995 50.6871V49.1571H217.385V50.6871H213.995ZM209.69 50.6871V49.1571H212.945V50.6871H209.69ZM208.64 52.1571H209.69V51.6171H217.385V52.0971H218.48V45.9171H208.64V52.1571ZM213.515 39.3021V40.2471H215.27C215.06 42.2571 214.505 43.8321 212.54 44.6871C212.78 44.8671 213.08 45.2421 213.185 45.4821C215.405 44.4621 216.065 42.6321 216.32 40.2471H218.6C218.48 42.7521 218.345 43.7121 218.135 43.9521C218.015 44.1021 217.88 44.1171 217.655 44.1021C217.43 44.1021 216.815 44.1021 216.17 44.0421C216.335 44.3271 216.44 44.7171 216.47 45.0321C217.13 45.0621 217.79 45.0771 218.15 45.0471C218.54 45.0021 218.81 44.8971 219.035 44.6271C219.41 44.2071 219.545 43.0221 219.695 39.7671C219.71 39.6021 219.71 39.3021 219.71 39.3021H213.515ZM223.31 41.9421H233.765V44.2671H234.845V40.9521H232.52C233.03 40.3521 233.585 39.6321 234.05 38.9571L232.895 38.5671C232.52 39.2721 231.86 40.2621 231.29 40.9521H228.635L229.28 40.6971C229.085 40.0671 228.575 39.1071 228.065 38.4021L227.09 38.7621C227.54 39.4221 228.02 40.3221 228.2 40.9521H225.14L225.65 40.6971C225.38 40.1271 224.765 39.2721 224.21 38.6571L223.28 39.0771C223.73 39.6321 224.255 40.3971 224.54 40.9521H222.245V44.2671H223.31V41.9421ZM235.115 46.8771H229.07V46.5021C230.39 45.8721 231.785 44.9271 232.715 43.9671L231.995 43.4271L231.77 43.4871H224.45V44.4771H230.645C230.03 44.9571 229.265 45.4371 228.53 45.7971H227.96V46.8771H221.96V47.9121H227.96V50.8071C227.96 51.0321 227.885 51.1071 227.57 51.1221C227.285 51.1371 226.265 51.1371 225.125 51.1071C225.29 51.3921 225.515 51.8571 225.59 52.1721C226.955 52.1721 227.81 52.1571 228.35 51.9921C228.89 51.8271 229.07 51.4971 229.07 50.8371V47.9121H235.115V46.8771ZM240.59 49.0821C240.59 50.5671 241.1 51.2871 243.89 51.2871C245.765 51.2871 247.265 51.1821 248.6 50.9871L248.66 49.6971C247.16 49.9821 245.72 50.1321 243.98 50.1321C242.195 50.1321 241.805 49.8021 241.805 48.7671V44.2971C244.46 43.7571 247.22 43.2021 247.475 43.1571C247.025 44.0571 245.93 45.7071 244.805 46.7271L245.855 47.3571C247.055 46.1121 248.24 44.2371 248.93 42.9921C249.035 42.7971 249.185 42.5421 249.29 42.3921L248.405 41.7021C248.225 41.8071 247.94 41.8971 247.61 41.9721C246.98 42.1071 244.355 42.6471 241.805 43.1421V40.8021C241.805 40.3671 241.835 39.8571 241.91 39.4221H240.485C240.56 39.8571 240.59 40.3521 240.59 40.8021V43.3671C239 43.6671 237.575 43.9221 236.9 44.0121L237.125 45.2571C237.74 45.1221 239.075 44.8521 240.59 44.5371V49.0821ZM254.405 40.0221L253.55 40.9371C254.66 41.6871 256.535 43.2921 257.285 44.0721L258.23 43.1271C257.39 42.2871 255.47 40.7271 254.405 40.0221ZM253.115 50.0721L253.91 51.3021C256.415 50.8371 258.305 49.9221 259.805 48.9771C262.07 47.5521 263.825 45.5121 264.845 43.6371L264.125 42.3621C263.255 44.2071 261.425 46.4271 259.115 47.8821C257.69 48.7671 255.74 49.6821 253.115 50.0721ZM274.04 39.2421L272.675 38.8071C272.585 39.1971 272.345 39.7221 272.195 39.9921C271.49 41.3571 269.96 43.6071 267.38 45.2121L268.385 45.9921C270.065 44.8371 271.4 43.3671 272.36 42.0171H277.43C277.13 43.2471 276.365 44.8671 275.39 46.1721C274.34 45.4371 273.215 44.7171 272.225 44.1471L271.415 44.9721C272.375 45.5721 273.515 46.3521 274.595 47.1321C273.245 48.5871 271.325 49.9671 268.79 50.7471L269.87 51.6771C272.405 50.7321 274.25 49.3521 275.585 47.8671C276.2 48.3621 276.77 48.8271 277.22 49.2321L278.105 48.1971C277.625 47.8071 277.025 47.3421 276.395 46.8771C277.535 45.3471 278.345 43.5921 278.735 42.2121C278.825 41.9721 278.96 41.6121 279.095 41.4021L278.105 40.8021C277.85 40.8921 277.52 40.9521 277.115 40.9521H273.05C273.17 40.7721 273.275 40.5921 273.365 40.4121C273.515 40.1421 273.785 39.6321 274.04 39.2421ZM282.53 44.5221V45.9921C282.995 45.9471 283.79 45.9171 284.615 45.9171H292.85C293.525 45.9171 294.155 45.9771 294.455 45.9921V44.5221C294.125 44.5521 293.585 44.5971 292.835 44.5971H284.615C283.775 44.5971 282.98 44.5521 282.53 44.5221Z" fill="white"/>
</g>
<path d="M100.557 70.5488C101.197 69.5507 116.318 49.7264 116.318 49.7264C116.318 49.7264 114.859 49.4497 112.583 48.8645C110.453 48.3203 110.534 47.1052 110.529 46.0827C110.52 45.0635 111.017 32.6957 111.017 32.6957C111.017 32.6957 102.018 36.843 100.647 37.4587C99.2763 38.0787 98.7018 37.6667 98.3948 37.2474C98.092 36.8276 95.6891 31.7032 95.6891 31.7032C95.6891 31.7032 89.7958 42.9765 88.4303 44.8814C87.0739 46.7886 85.7238 45.0373 85.7087 43.4811C85.6937 41.9246 84.7697 20.7753 84.7697 20.7753C84.7697 20.7753 81.3506 23.6107 79.947 24.8291C78.5425 26.0454 77.324 25.7168 76.2053 24.5246C75.0862 23.3319 66.7798 12.793 66.7798 12.793C66.7798 12.793 63.5777 25.8149 63.0527 27.3621C62.5272 28.9092 61.5537 29.7107 59.7753 29.181C57.988 28.651 53.7049 27.4774 53.7049 27.4774C53.7049 27.4774 61.6141 47.1196 62.2447 48.5433C62.8793 49.9658 62.3748 52.1174 60.3461 50.9404C58.318 49.7676 48.2848 41.9305 48.2848 41.9305C48.2848 41.9305 48.2175 47.5878 48.1114 48.0959C48.0095 48.6034 47.6567 49.2155 46.1522 49.2157C44.6484 49.2203 34.7363 49.1531 34.7363 49.1531C34.7363 49.1531 40.3049 60.212 40.7228 61.1431C41.1412 62.0765 41.7137 63.1507 40.0034 64.5234C38.1691 65.9956 36.955 66.8487 36.955 66.8487C36.955 66.8487 58.9313 78.6693 59.9316 79.3136C60.9315 79.9584 61.2438 80.6454 61.1145 81.8005C60.99 82.9569 58.3495 88.0969 58.3495 88.0969C58.3495 88.0969 76.7057 81.9948 77.8978 82.1611C79.0851 82.3263 79.9655 82.0305 80.8981 84.8691C81.8229 87.7113 83.9898 101.909 83.9898 101.909L85.9025 101.496L86.0827 101.457L88.0008 101.043C88.0008 101.043 84.0917 87.222 83.7656 84.2504C83.4306 81.2829 84.3567 81.189 85.3698 80.5491C86.3844 79.9066 105.629 77.8963 105.629 77.8963C105.629 77.8963 101.097 74.3037 100.505 73.3021C99.9133 72.3024 99.9089 71.549 100.557 70.5488Z" fill="white"/>
<defs>
<filter id="filter0_d" x="108.99" y="61.8171" width="274.277" height="38.45" filterUnits="userSpaceOnUse" color-interpolation-filters="sRGB">
<feFlood flood-opacity="0" result="BackgroundImageFix"/>
<feColorMatrix in="SourceAlpha" type="matrix" values="0 0 0 0 0 0 0 0 0 0 0 0 0 0 0 0 0 0 127 0"/>
<feOffset dy="4"/>
<feGaussianBlur stdDeviation="2"/>
<feColorMatrix type="matrix" values="0 0 0 0 0 0 0 0 0 0 0 0 0 0 0 0 0 0 0.2 0"/>
<feBlend mode="normal" in2="BackgroundImageFix" result="effect1_dropShadow"/>
<feBlend mode="normal" in="SourceGraphic" in2="effect1_dropShadow" result="shape"/>
</filter>
<filter id="filter1_d" x="112.945" y="38.3271" width="185.51" height="21.845" filterUnits="userSpaceOnUse" color-interpolation-filters="sRGB">
<feFlood flood-opacity="0" result="BackgroundImageFix"/>
<feColorMatrix in="SourceAlpha" type="matrix" values="0 0 0 0 0 0 0 0 0 0 0 0 0 0 0 0 0 0 127 0"/>
<feOffset dy="4"/>
<feGaussianBlur stdDeviation="2"/>
<feColorMatrix type="matrix" values="0 0 0 0 0 0 0 0 0 0 0 0 0 0 0 0 0 0 0.25 0"/>
<feBlend mode="normal" in2="BackgroundImageFix" result="effect1_dropShadow"/>
<feBlend mode="normal" in="SourceGraphic" in2="effect1_dropShadow" result="shape"/>
</filter>
</defs>
</svg>
