<svg width="29" height="29" viewBox="0 0 29 29" fill="none" xmlns="http://www.w3.org/2000/svg">
<g clip-path="url(#clip0)">
<path d="M18.7242 23.6916L21.6485 21.7173C22.0057 21.4763 22.2515 21.1086 22.3338 20.6853C22.4161 20.262 22.3282 19.8295 22.085 19.4718L19.9637 16.3208C19.7227 15.9636 19.3528 15.7174 18.9294 15.6351C18.5038 15.5523 18.0736 15.6406 17.7136 15.8834L15.2492 17.5437C14.2463 16.8614 13.3833 15.9934 12.7068 14.9865C12.022 13.9772 11.5444 12.86 11.2833 11.6728L13.7478 10.0125C14.105 9.77157 14.3508 9.4039 14.4331 8.98058C14.4744 8.77192 14.4737 8.55712 14.431 8.34874C14.3883 8.14036 14.3044 7.9426 14.1843 7.76705L12.0634 4.61378C11.8225 4.25655 11.4525 4.01033 11.0292 3.92804C10.6035 3.8453 10.1733 3.93358 9.81335 4.17638L6.88956 6.14844C6.27952 6.55991 5.85048 7.20712 5.71005 7.92953C5.68098 8.07907 5.6643 8.22625 5.66099 8.37842C5.57039 11.522 6.6047 14.8604 8.5689 17.7755C10.5381 20.6892 13.2464 22.8966 16.1964 23.9953C17.0333 24.3084 17.98 24.1916 18.7242 23.6916ZM16.7873 22.4173C14.162 21.4414 11.7399 19.4568 9.96989 16.8326C8.19985 14.2083 7.26673 11.2214 7.34539 8.42173C7.35407 8.07005 7.53708 7.7427 7.83156 7.54209L10.7031 5.60524L12.7591 8.65039L9.46244 10.8699L9.43771 10.8866L9.52516 11.4193C9.78624 13.0338 10.3953 14.5722 11.31 15.9279C12.2248 17.2836 13.4234 18.4242 14.8227 19.2706L15.2839 19.5512L18.6011 17.3118L20.657 20.357L17.7854 22.2938C17.4887 22.494 17.1166 22.5411 16.7873 22.4173Z" fill="white"/>
</g>
<defs>
<clipPath id="clip0">
<rect width="24" height="24" fill="white" transform="translate(28.1387 4.57983) rotate(101.001)"/>
</clipPath>
</defs>
</svg>
