<svg width="406" height="306" viewBox="0 0 406 306" fill="none" xmlns="http://www.w3.org/2000/svg">
<path d="M76.7544 25.1912H185.217V152.158H76.7544V25.1912Z" fill="#E6E6E6"/>
<path d="M181.31 163.434L204.452 187.794C203.305 180.882 202.158 171.686 200.503 159.425C194.2 112.573 229.603 106.899 229.603 106.899C229.603 106.899 245.843 204.846 225.777 206.856C224.346 206.998 223.046 207.11 221.818 207.191L222.935 215.25C191.165 221.34 172.408 167.017 172.408 167.017L181.31 163.434Z" fill="#2DB2CB"/>
<path opacity="0.46" d="M181.31 163.434L204.452 187.794C203.305 180.882 202.158 171.686 200.503 159.425C194.2 112.573 229.603 106.899 229.603 106.899C229.603 106.899 245.843 204.846 225.777 206.856C224.346 206.998 223.046 207.11 221.818 207.191L222.935 215.25C191.165 221.34 172.408 167.017 172.408 167.017L181.31 163.434Z" fill="white"/>
<path opacity="0.45" d="M227.756 275.013C149.769 275.013 86.549 265.179 86.549 253.049C86.549 240.918 149.769 231.084 227.756 231.084C305.742 231.084 368.963 240.918 368.963 253.049C368.963 265.179 305.742 275.013 227.756 275.013Z" fill="#E6E6E6"/>
<path d="M229.603 106.909C232.243 105.999 234.996 105.463 237.784 105.315C246.564 104.747 270.538 104.595 298.298 116.145C333.367 130.741 285.895 228.942 285.895 228.942L226.345 224.486C226.345 224.486 184.73 122.855 229.603 106.909Z" fill="#2DB2CB"/>
<path d="M47.8979 130.204L113.958 132.061L112.797 173.375L46.7367 171.518L47.8979 130.204Z" fill="#F2F2F2"/>
<path d="M113.974 132.081L80.2155 157.141L47.908 130.223L113.974 132.081Z" fill="#C9C9C9"/>
<path opacity="0.08" d="M288.199 123.291C288.199 123.291 265.544 124.306 266.57 159.435C267.595 194.564 251.72 185.358 251.72 185.358L225.787 144.068C225.787 144.068 217.525 143.104 216.378 151.802C215.647 157.415 225.513 181.379 232.618 197.67C234.588 202.221 235.042 207.286 233.912 212.115C232.782 216.944 230.129 221.281 226.345 224.486L285.844 228.942L287.874 224.486L288.199 123.291Z" fill="black"/>
<path d="M273.989 74.1447C273.989 74.1447 269.036 80.9959 267.371 86.5277C267.211 87.0641 267.159 87.627 267.217 88.1838C267.276 88.7406 267.444 89.2804 267.711 89.7719C267.979 90.2635 268.342 90.6972 268.778 91.048C269.215 91.3988 269.716 91.6597 270.254 91.8158C273.055 92.6177 277.065 92.8308 280.17 89.5321L286.128 84.4571C286.128 84.4571 289.752 81.1685 287.418 75.7788C285.083 70.3892 276.79 69.8208 273.989 74.1447Z" fill="#F4A28C"/>
<path d="M282.606 84.1627L285.631 111.7L270.335 112.278L274.273 92.0087L282.606 84.1627Z" fill="#F4A28C"/>
<path d="M275.603 75.5251C277.793 76.9497 280.14 78.1178 282.596 79.0065C281.364 79.6114 280.334 80.5602 279.63 81.7383C278.925 82.9163 278.577 84.273 278.628 85.6446C278.66 86.9777 279.155 88.2582 280.027 89.2672C280.899 90.2761 282.094 90.951 283.408 91.1764L288.859 81.7775C289.684 80.46 290.139 78.9443 290.174 77.3901C290.21 75.8359 289.826 74.3009 289.062 72.947C288.395 71.7758 287.656 70.647 286.849 69.567C284.819 66.8874 279.815 66.3292 278.486 63.071C278.352 62.7438 278.136 62.457 277.858 62.239C277.58 62.0211 277.25 61.8794 276.9 61.8282C276.55 61.7769 276.194 61.8178 275.865 61.9468C275.536 62.0757 275.246 62.2883 275.024 62.5635C272.913 65.1416 270.751 69.9121 273.664 73.7285C274.207 74.4301 274.862 75.0371 275.603 75.5251Z" fill="#24285B"/>
<path d="M277.978 84.995C277.978 84.995 279.704 82.2342 281.673 83.706C283.642 85.1777 281.175 89.187 278.1 87.8573L277.978 84.995Z" fill="#F4A28C"/>
<path d="M271.086 78.6208L267.392 80.2042C267.182 80.2949 266.998 80.4369 266.858 80.6172C266.718 80.7975 266.625 81.0103 266.589 81.2358C266.552 81.4614 266.573 81.6924 266.65 81.9077C266.726 82.123 266.856 82.3156 267.026 82.4677L269.493 84.6499L271.086 78.6208Z" fill="#F4A28C"/>
<path opacity="0.31" d="M274.486 92.6684C276.442 92.6915 278.362 92.141 280.008 91.085C280.008 91.085 279.775 96.16 273.126 99.6414L274.486 92.6684Z" fill="#CE8172"/>
<path d="M285.895 228.942C285.895 228.942 316.741 240.412 309.24 257.616C303.647 270.527 275.288 259.494 256.714 254.013C250.072 252.068 243.126 251.38 236.231 251.983C223.473 253.079 207.253 256.997 201.802 249.587C193.774 238.696 204.056 229.155 226.355 224.527L285.895 228.942Z" fill="#24285B"/>
<path d="M280.576 134.73C284.636 116.714 309.372 114.694 316.396 131.776C319.146 138.455 320.892 147.052 320.456 158.004C318.71 196.422 311.087 229.125 282.17 223.949C253.253 218.772 225.746 157.974 225.746 157.974L238.941 150.534L279.602 190.119C279.602 190.119 275.126 158.583 280.576 134.73Z" fill="#2DB2CB"/>
<path opacity="0.46" d="M280.576 134.73C284.636 116.714 309.372 114.694 316.396 131.776C319.146 138.455 320.892 147.052 320.456 158.004C318.71 196.422 311.087 229.125 282.17 223.949C253.253 218.772 225.746 157.974 225.746 157.974L238.941 150.534L279.602 190.119C279.602 190.119 275.126 158.583 280.576 134.73Z" fill="white"/>
<path d="M237.317 151.447C237.317 151.447 230.405 138.983 223.107 141.581C215.809 144.18 225.868 147.59 225.868 147.59C225.868 147.59 220.732 152.076 227.522 156.979L237.317 151.447Z" fill="#F4A28C"/>
<path d="M248.868 243.152L246.939 252.054C246.939 252.054 237.804 258.763 232.049 254.561C226.294 250.359 235.105 245.507 248.868 243.152Z" fill="#2DB2CB"/>
<path d="M171.004 131.9L189.181 129.381L193.665 161.734L175.487 164.253L171.004 131.9Z" fill="#FFD200"/>
<path d="M172.408 167.027C172.408 167.027 168.348 151.802 178.143 151.802C187.937 151.802 184.162 167.91 172.408 167.027Z" fill="#F4A28C"/>
<path d="M289.204 112.725C289.204 112.725 289.346 106.198 284.687 103.143C281.175 100.849 273.015 104.737 269.219 106.787C268.317 107.251 267.595 108.001 267.167 108.92C266.739 109.838 266.629 110.874 266.854 111.862C267.076 112.641 267.526 113.336 268.147 113.857C268.767 114.378 269.529 114.701 270.335 114.785C275.826 115.963 289.204 112.725 289.204 112.725Z" fill="#2DB2CB"/>
<path opacity="0.46" d="M289.204 112.725C289.204 112.725 289.346 106.198 284.687 103.143C281.175 100.849 273.015 104.737 269.219 106.787C268.317 107.251 267.595 108.001 267.167 108.92C266.739 109.838 266.629 110.874 266.854 111.862C267.076 112.641 267.526 113.336 268.147 113.857C268.767 114.378 269.529 114.701 270.335 114.785C275.826 115.963 289.204 112.725 289.204 112.725Z" fill="white"/>
<path d="M123.231 61.8428V40.8019H198.006V69.3538H123.231H108.767L123.231 61.8428Z" fill="#FFD200"/>
<path d="M138.923 113.151V92.1102H64.1479V120.662H138.923H153.387L138.923 113.151Z" fill="#24285B"/>
<path d="M95.7348 76.4893C91.8781 76.4893 88.7516 73.3628 88.7516 69.5061C88.7516 65.6494 91.8781 62.5229 95.7348 62.5229C99.5915 62.5229 102.718 65.6494 102.718 69.5061C102.718 73.3628 99.5915 76.4893 95.7348 76.4893Z" fill="#F2F2F2"/>
<path d="M167.901 126.986C164.045 126.986 160.918 123.859 160.918 120.002C160.918 116.146 164.045 113.019 167.901 113.019C171.758 113.019 174.885 116.146 174.885 120.002C174.885 123.859 171.758 126.986 167.901 126.986Z" fill="#F2F2F2"/>
<path d="M137.695 47.0645H184.131V52.3932H137.695V47.0645Z" fill="white"/>
<path opacity="0.37" d="M137.695 57.2144H184.131V62.5432H137.695V57.2144Z" fill="white"/>
<path d="M78.7742 98.6468H125.21V103.976H78.7742V98.6468Z" fill="white"/>
<path opacity="0.37" d="M78.7742 108.797H125.21V114.126H78.7742V108.797Z" fill="white"/>
<path opacity="0.58" d="M147.703 231.246C147.703 231.246 161.152 227.633 164.125 215.148C164.125 215.148 143.328 210.855 142.648 232.332L147.703 231.246Z" fill="#2DB2CB"/>
<path opacity="0.73" d="M146.059 229.907C146.059 229.907 155.508 215.118 147.307 201.202C147.307 201.202 131.443 211.19 138.395 229.907H146.059Z" fill="#2DB2CB"/>
<path d="M143.643 229.907C143.643 229.907 138.751 214.225 123.779 211.19C123.779 211.19 120.917 221.34 133.401 229.907H143.643Z" fill="#2DB2CB"/>
<path d="M153.387 229.602L150.585 248.217H133.432L130.986 229.602H153.387Z" fill="#24285B"/>
<path d="M86.9346 55.0829H104.443V58.605H86.9346V55.0829Z" fill="#ADADAD"/>
<path opacity="0.55" d="M159.142 105.143H176.651V108.665H159.142V105.143Z" fill="#ADADAD"/>
</svg>
