<svg width="268" height="202" viewBox="0 0 268 202" fill="none" xmlns="http://www.w3.org/2000/svg">
<path d="M129.866 108.243C129.866 108.243 134.556 122.119 147.467 120.619C160.378 119.118 160.244 88.2225 160.244 88.2225L129.866 108.243Z" fill="#8D9A9C"/>
<path opacity="0.08" d="M129.866 108.243C129.866 108.243 134.556 122.119 147.467 120.619C160.378 119.118 160.244 88.2225 160.244 88.2225L129.866 108.243Z" fill="black"/>
<path d="M155.477 47.4673L151.015 48.1597L151.391 50.583L155.853 49.8906L155.477 47.4673Z" fill="#FFD200"/>
<path opacity="0.08" d="M155.477 47.4673L151.015 48.1597L151.391 50.583L155.853 49.8906L155.477 47.4673Z" fill="black"/>
<path d="M156.543 54.3251L152.081 55.0175L152.457 57.4409L156.919 56.7484L156.543 54.3251Z" fill="#FFD200"/>
<path opacity="0.08" d="M156.543 54.3251L152.081 55.0175L152.457 57.4409L156.919 56.7484L156.543 54.3251Z" fill="black"/>
<path d="M157.472 60.6339L153.01 61.3263L153.386 63.7496L157.848 63.0572L157.472 60.6339Z" fill="#FFD200"/>
<path opacity="0.08" d="M157.472 60.6339L153.01 61.3263L153.386 63.7496L157.848 63.0572L157.472 60.6339Z" fill="black"/>
<path d="M158.903 66.8343L154.44 67.5267L154.816 69.9501L159.279 69.2576L158.903 66.8343Z" fill="#FFD200"/>
<path opacity="0.08" d="M158.903 66.8343L154.44 67.5267L154.816 69.9501L159.279 69.2576L158.903 66.8343Z" fill="black"/>
<path d="M159.895 73.167L155.433 73.8594L155.809 76.2828L160.271 75.5903L159.895 73.167Z" fill="#FFD200"/>
<path opacity="0.08" d="M159.895 73.167L155.433 73.8594L155.809 76.2828L160.271 75.5903L159.895 73.167Z" fill="black"/>
<path opacity="0.45" d="M140.459 185.639C195.371 185.639 239.887 180.014 239.887 173.075C239.887 166.137 195.371 160.512 140.459 160.512C85.5462 160.512 41.0308 166.137 41.0308 173.075C41.0308 180.014 85.5462 185.639 140.459 185.639Z" fill="#E6E6E6"/>
<path d="M141.062 29.3802C141.062 29.3802 141.397 34.4055 140.486 37.7221C140.396 38.044 140.244 38.345 140.037 38.6079C139.831 38.8708 139.575 39.0904 139.284 39.2541C138.992 39.4178 138.672 39.5224 138.34 39.5619C138.008 39.6014 137.672 39.575 137.35 39.4843C135.688 39.0019 133.578 37.8628 133.069 35.1961L131.655 30.7672C131.461 29.8468 131.559 28.8887 131.934 28.0265C132.31 27.1642 132.946 26.4406 133.752 25.9563C136.626 23.9931 141.008 26.3048 141.062 29.3802Z" fill="#F4A28C"/>
<path d="M132.539 30.5796L126.891 46.0841L135.655 48.59L136.238 36.6099L132.539 30.5796Z" fill="#F4A28C"/>
<path d="M131.139 28.536L130.925 35.0018C131.658 35.3024 132.473 35.3391 133.231 35.1057C133.988 34.8723 134.642 34.3833 135.079 33.722C135.542 33.0465 135.798 32.2502 135.815 31.4311C135.831 30.6121 135.608 29.806 135.173 29.1122C137.31 29.5544 140.238 28.603 141.122 28.5762C141.645 28.5762 141.015 28.9648 141.122 26.6867C140.856 25.9621 140.431 25.306 139.88 24.7659C139.328 24.2258 138.663 23.8153 137.933 23.5643C135.38 22.6464 130.918 23.2762 131.139 28.536Z" fill="#24285B"/>
<path d="M141.109 32.4088L142.549 34.8812L140.928 35.2564L141.109 32.4088Z" fill="#F4A28C"/>
<path d="M121.739 167.012C121.739 167.012 121.739 170.013 124.037 171.092C126.335 172.171 126.134 174.744 123.756 174.563C121.377 174.382 116.841 169.585 116.841 169.585L118.262 166.187L121.739 167.012Z" fill="#8D9A9C"/>
<path d="M156.512 168.76C156.512 168.76 157.055 171.709 159.534 172.338C162.013 172.968 162.274 175.534 159.902 175.802C157.531 176.07 152.177 172.204 152.177 172.204L152.941 168.6L156.512 168.76Z" fill="#8D9A9C"/>
<path d="M126.891 27.8324C126.891 27.8324 138.529 32.583 146.408 30.5796L143.38 28.9179C142.87 28.6356 142.427 28.2473 142.081 27.7792C141.734 27.3111 141.492 26.774 141.37 26.2043L140.198 20.8038L131.588 21.6815L131.213 24.7302C131.135 25.3468 130.872 25.9254 130.46 26.3904C130.047 26.8554 129.504 27.1852 128.901 27.3366L126.891 27.8324Z" fill="#24285B"/>
<path d="M113.853 43.8127C115.541 44.1209 117.243 44.4023 118.952 44.5899C124.519 45.2131 136.78 46.9552 146.884 50.9955C160.425 56.4093 163.52 91.1974 134.703 115.205H104.728C104.728 115.205 86.162 77.5489 91.187 57.8365C95.2137 42.0371 108.64 42.8613 113.853 43.8127Z" fill="#8D9A9C"/>
<path d="M104.728 115.205L119.052 133.925C121.286 136.842 122.741 140.278 123.282 143.912C123.822 147.545 123.43 151.256 122.141 154.696L117.88 166.087L123.293 168.626L130.57 154.67C132.631 150.722 133.731 146.344 133.783 141.89C133.834 137.437 132.834 133.035 130.864 129.041L126.335 119.855L134.704 115.231L104.728 115.205Z" fill="#24285B"/>
<path d="M140.934 48.925C140.934 48.925 149.336 90.1924 132.446 115.205H134.703C134.703 115.205 150.75 97.7838 145.47 49.9636C145.47 49.9636 142.71 49.4075 140.934 48.925Z" fill="#24285B"/>
<path d="M113.853 43.8127C113.853 43.8127 139.105 68.8049 118.262 115.205H113.853C113.853 115.205 136.821 68.1684 107.2 43.4576C109.41 42.9832 111.706 43.1058 113.853 43.8127Z" fill="#24285B"/>
<path opacity="0.08" d="M110.369 52.7577C110.369 52.7577 117.297 64.9456 115.555 76.1619C113.813 87.3783 144.955 53.7225 144.955 53.7225L149.41 71.4181C149.41 71.4181 143.032 104.953 104.741 115.205L100.5 105.536C100.5 105.536 95.5086 68.4096 110.369 52.7577Z" fill="black"/>
<path d="M140.177 37.1325L143.889 36.2346C144.779 36.0205 145.704 35.991 146.606 36.1479C147.507 36.3049 148.367 36.645 149.133 37.1473C149.898 37.6496 150.552 38.3034 151.055 39.0683C151.558 39.8333 151.899 40.6931 152.057 41.5949L161.135 93.3214C161.328 94.4053 161.838 95.4078 162.601 96.2022C163.363 96.9967 164.343 97.5476 165.418 97.7856C166.493 98.0235 167.615 97.9378 168.641 97.5392C169.667 97.1406 170.552 96.447 171.185 95.5459L177.697 86.2191L200.33 114.628L179.56 123.406C176.081 124.876 172.297 125.477 168.534 125.156C164.771 124.834 161.143 123.601 157.964 121.562C154.784 119.523 152.15 116.74 150.289 113.454C148.427 110.167 147.394 106.477 147.279 102.702L145.39 42.285C145.365 41.3393 144.993 40.4357 144.346 39.7454C143.699 39.0552 142.821 38.6261 141.879 38.5396L140.238 38.3787C140.11 38.3357 139.998 38.2552 139.917 38.1477C139.836 38.0402 139.789 37.9108 139.783 37.7762C139.776 37.6416 139.81 37.5082 139.881 37.3934C139.951 37.2786 140.055 37.1876 140.177 37.1325Z" fill="#FFD200"/>
<path d="M134.703 115.205L157.45 168.6H151.266L122.65 119.828L134.703 115.205Z" fill="#24285B"/>
<path d="M121.94 44.9585L127.354 41.6619L131.843 46.6402L128.707 50.6068L121.94 44.9585Z" fill="#24285B"/>
<path d="M131.843 46.6402L135.956 44.2281L137.832 48.2751L134.04 51.3238L131.843 46.6402Z" fill="#24285B"/>
<path d="M131.608 58.9287C132.57 58.9287 133.35 58.1487 133.35 57.1866C133.35 56.2244 132.57 55.4445 131.608 55.4445C130.646 55.4445 129.866 56.2244 129.866 57.1866C129.866 58.1487 130.646 58.9287 131.608 58.9287Z" fill="white"/>
<path d="M133.35 85.0063C134.312 85.0063 135.092 84.2264 135.092 83.2642C135.092 82.3021 134.312 81.5222 133.35 81.5222C132.388 81.5222 131.608 82.3021 131.608 83.2642C131.608 84.2264 132.388 85.0063 133.35 85.0063Z" fill="white"/>
<path d="M130.389 102.903C131.351 102.903 132.131 102.123 132.131 101.161C132.131 100.199 131.351 99.4187 130.389 99.4187C129.427 99.4187 128.647 100.199 128.647 101.161C128.647 102.123 129.427 102.903 130.389 102.903Z" fill="white"/>
<path d="M129.866 73.1601C130.828 73.1601 131.608 72.3802 131.608 71.418C131.608 70.4559 130.828 69.676 129.866 69.676C128.904 69.676 128.124 70.4559 128.124 71.418C128.124 72.3802 128.904 73.1601 129.866 73.1601Z" fill="white"/>
<path d="M139.688 53.4277C139.688 53.4277 143.038 47.8061 145.959 48.0674C148.881 48.3287 147.588 55.5048 142.033 57.4479L139.688 53.4277Z" fill="#F4A28C"/>
<path d="M111.575 60.3759C113.585 48.9854 99.6291 42.0036 91.8035 50.4862C88.5138 54.0508 86.1621 59.1498 86.1621 66.4665C86.1621 90.6413 86.3564 104.565 100.473 105.536C114.59 106.508 142.764 57.1866 142.764 57.1866L139.152 52.7577C139.152 52.7577 112.848 78.2859 103.374 84.2827C107.289 76.7691 110.053 68.7103 111.575 60.3759Z" fill="#8D9A9C"/>
<path opacity="0.46" d="M111.575 60.3759C113.585 48.9854 99.6291 42.0036 91.8035 50.4862C88.5138 54.0508 86.1621 59.1498 86.1621 66.4665C86.1621 90.6413 86.3564 104.565 100.473 105.536C114.59 106.508 142.764 57.1866 142.764 57.1866L139.152 52.7577C139.152 52.7577 112.848 78.2859 103.374 84.2827C107.289 76.7691 110.053 68.7103 111.575 60.3759Z" fill="white"/>
<path d="M200.719 114.317C203.879 112.012 201.57 103.466 195.562 95.2299C189.554 86.9936 182.122 82.1855 178.963 84.4907C175.803 86.7958 178.112 95.3413 184.12 103.578C190.127 111.814 197.559 116.622 200.719 114.317Z" fill="#FFD200"/>
<path opacity="0.46" d="M200.719 114.317C203.879 112.012 201.57 103.466 195.562 95.2299C189.554 86.9936 182.122 82.1855 178.963 84.4907C175.803 86.7958 178.112 95.3413 184.12 103.578C190.127 111.814 197.559 116.622 200.719 114.317Z" fill="white"/>
<path d="M198.396 109.767C199.927 108.65 197.609 102.866 193.219 96.8482C188.829 90.8302 184.03 86.8568 182.499 87.9734C180.969 89.0899 183.286 94.8737 187.676 100.892C192.066 106.91 196.865 110.883 198.396 109.767Z" fill="#FFD200"/>
<path opacity="0.08" d="M198.396 109.767C199.927 108.65 197.609 102.866 193.219 96.8482C188.829 90.8302 184.03 86.8568 182.499 87.9734C180.969 89.0899 183.286 94.8737 187.676 100.892C192.066 106.91 196.865 110.883 198.396 109.767Z" fill="black"/>
<path d="M131.226 24.3617C134.46 24.976 137.765 25.1294 141.042 24.8173L141.933 27.5845C141.933 27.5845 138.516 28.2546 130.389 26.4388L131.226 24.3617Z" fill="#8D9A9C"/>
<path d="M160.244 88.2225C160.244 88.2225 163.668 82.1922 160.244 79.7466C156.82 77.3009 154.904 85.348 160.244 88.2225Z" fill="#F4A28C"/>
<path opacity="0.16" d="M161.47 116.518C161.139 116.433 160.789 116.47 160.483 116.622C160.177 116.774 159.935 117.03 159.802 117.345C159.669 117.66 159.653 118.012 159.758 118.337C159.862 118.662 160.08 118.939 160.371 119.118C163.642 121.18 167.532 122.031 171.366 121.523C176.021 120.918 180.546 119.56 184.766 117.503C185.242 117.265 185.654 116.915 185.965 116.483C186.277 116.051 186.479 115.55 186.554 115.023C186.629 114.496 186.575 113.958 186.397 113.457C186.218 112.955 185.921 112.504 185.53 112.143C185.106 111.75 184.606 111.448 184.062 111.255C183.517 111.061 182.939 110.981 182.363 111.018C181.786 111.055 181.223 111.209 180.708 111.47C180.193 111.731 179.736 112.095 179.366 112.538C176.88 115.647 171.721 119.011 161.47 116.518Z" fill="white"/>
<path d="M212.45 122.488C212.553 122.182 212.772 121.93 213.06 121.786C213.349 121.642 213.682 121.619 213.988 121.721C214.294 121.823 214.546 122.042 214.69 122.331C214.834 122.619 214.857 122.953 214.755 123.259L208.913 140.753C210.815 141.018 212.56 141.952 213.837 143.386C216.303 145.973 216.993 149.323 215.378 150.864C213.764 152.405 210.447 151.567 208.008 148.981C206.126 146.971 205.288 144.592 205.71 142.877C205.707 142.817 205.707 142.756 205.71 142.696L212.45 122.488Z" fill="#E6E6E6"/>
<path d="M213.496 36.1877L200.725 35.3837L200.518 34.5529C200.45 34.312 200.291 34.107 200.075 33.9818C199.858 33.8566 199.601 33.8211 199.359 33.8828C199.118 33.9489 198.913 34.1066 198.788 34.3221C198.663 34.5376 198.627 34.7937 198.689 35.0353L202.226 49.0591C200.717 49.1454 199.289 49.7735 198.206 50.828C196.122 52.7041 195.385 55.277 196.558 56.5768C197.73 57.8767 200.37 57.4144 202.454 55.545C204.042 54.1111 204.839 52.2752 204.605 50.9017C204.611 50.855 204.611 50.8076 204.605 50.761L202.179 41.1393L213.496 36.1877Z" fill="#E6E6E6"/>
<path d="M82.3028 124.009L67.0536 122.95L66.8124 121.959C66.7772 121.814 66.7138 121.677 66.6259 121.557C66.538 121.437 66.4273 121.335 66.3 121.258C66.1728 121.18 66.0316 121.129 65.8844 121.106C65.7372 121.083 65.5869 121.089 65.4422 121.124C65.2975 121.16 65.1611 121.223 65.0408 121.311C64.9206 121.399 64.8188 121.51 64.7414 121.637C64.6639 121.764 64.6123 121.905 64.5894 122.052C64.5665 122.2 64.5729 122.35 64.6081 122.495L68.7219 139.245C66.9256 139.346 65.2244 140.085 63.9247 141.329C61.4256 143.554 60.5278 146.623 61.9147 148.184C63.3016 149.745 66.4573 149.216 68.9564 146.991C70.8659 145.296 71.8307 143.105 71.5694 141.47C71.5727 141.414 71.5727 141.358 71.5694 141.302L68.742 129.811L82.3028 124.009Z" fill="#E6E6E6"/>
<path d="M67.0535 41.816L56.2196 37.3469C56.0186 37.2523 55.7884 37.2408 55.579 37.3148C55.3695 37.3888 55.1977 37.5424 55.1007 37.7422L49.6268 49.2668C48.5524 48.4839 47.2336 48.1109 45.9083 48.2148C43.4427 48.322 41.493 49.6554 41.56 51.2032C41.627 52.751 43.6772 53.8833 46.1495 53.8096C48.0322 53.7292 49.6067 52.9319 50.2231 51.8665C50.2231 51.8665 50.2767 51.8062 50.2968 51.766L55.1409 41.5681L64.5209 45.2131L60.4607 53.7359C59.3884 52.9541 58.072 52.581 56.7489 52.6839C54.2766 52.7912 52.3269 54.1245 52.3939 55.6723C52.4609 57.2201 54.5178 58.3859 56.9834 58.2787C58.8661 58.1983 60.4406 57.401 61.057 56.3356C61.057 56.3356 61.1106 56.2753 61.1307 56.2351L67.4555 42.935C67.5496 42.7331 67.5602 42.5023 67.4849 42.2927C67.4096 42.0831 67.2546 41.9118 67.0535 41.816Z" fill="#E6E6E6"/>
<path opacity="0.49" d="M99.3275 22.2712C101.085 22.2712 102.51 20.8462 102.51 19.0885C102.51 17.3308 101.085 15.9059 99.3275 15.9059C97.5699 15.9059 96.145 17.3308 96.145 19.0885C96.145 20.8462 97.5699 22.2712 99.3275 22.2712Z" fill="#E6E6E6"/>
<path opacity="0.49" d="M219.311 90.6011C220.584 90.6011 221.616 89.5692 221.616 88.2962C221.616 87.0232 220.584 85.9913 219.311 85.9913C218.038 85.9913 217.006 87.0232 217.006 88.2962C217.006 89.5692 218.038 90.6011 219.311 90.6011Z" fill="#E6E6E6"/>
<path opacity="0.49" d="M165.912 142.87C166.793 142.87 167.507 142.156 167.507 141.276C167.507 140.395 166.793 139.681 165.912 139.681C165.032 139.681 164.318 140.395 164.318 141.276C164.318 142.156 165.032 142.87 165.912 142.87Z" fill="#E6E6E6"/>
<path opacity="0.49" d="M97.7396 142.87C98.6203 142.87 99.3342 142.156 99.3342 141.276C99.3342 140.395 98.6203 139.681 97.7396 139.681C96.859 139.681 96.145 140.395 96.145 141.276C96.145 142.156 96.859 142.87 97.7396 142.87Z" fill="#E6E6E6"/>
<path opacity="0.49" d="M170.79 34.0034C172.107 34.0034 173.175 32.9355 173.175 31.6181C173.175 30.3007 172.107 29.2328 170.79 29.2328C169.472 29.2328 168.405 30.3007 168.405 31.6181C168.405 32.9355 169.472 34.0034 170.79 34.0034Z" fill="#E6E6E6"/>
<path opacity="0.49" d="M52.4476 95.9077C55.1156 95.9077 57.2783 93.7449 57.2783 91.0768C57.2783 88.4088 55.1156 86.2459 52.4476 86.2459C49.7797 86.2459 47.6169 88.4088 47.6169 91.0768C47.6169 93.7449 49.7797 95.9077 52.4476 95.9077Z" fill="#E6E6E6"/>
</svg>
