<svg width="56" height="56" viewBox="0 0 56 56" fill="none" xmlns="http://www.w3.org/2000/svg">
<circle cx="28" cy="28" r="27" stroke="black" stroke-width="2"/>
<path d="M39.9925 20.032C41.3372 19.2281 42.3433 17.9623 42.823 16.471C41.5595 17.2207 40.1771 17.7488 38.7355 18.0325C36.7369 15.9183 33.5703 15.4038 31.0051 16.7765C28.44 18.1492 27.1113 21.0692 27.7615 23.905C22.5859 23.6451 17.764 21.2004 14.4955 17.179C12.7898 20.1211 13.6615 23.8822 16.4875 25.774C15.4656 25.7411 14.4663 25.4644 13.573 24.967C13.573 24.994 13.573 25.021 13.573 25.048C13.5736 28.1127 15.7336 30.7526 18.7375 31.36C17.7896 31.6179 16.7953 31.6558 15.8305 31.471C16.6753 34.0919 19.0908 35.8874 21.844 35.941C19.5638 37.7307 16.7477 38.7012 13.849 38.6965C13.3352 38.6972 12.8218 38.6677 12.3115 38.608C15.2551 40.4995 18.6811 41.5035 22.18 41.5C27.0479 41.5334 31.7261 39.6143 35.1681 36.172C38.6102 32.7297 40.5289 28.0514 40.495 23.1835C40.495 22.9045 40.4885 22.627 40.4755 22.351C41.7362 21.4399 42.8242 20.3112 43.6885 19.018C42.514 19.5386 41.2682 19.8804 39.9925 20.032Z" fill="#192038"/>
</svg>
